<svg width="280" height="280" viewBox="0 0 280 280" fill="none" xmlns="http://www.w3.org/2000/svg" class="size-[220px] object-cover lg:size-[280px]"><path d="M55.6635 167.55C48.0021 175.05 46.7158 186.654 48.3308 196.817C48.3728 197.048 48.7296 196.985 48.7296 196.769C48.7296 194.455 48.6596 192.162 48.6668 189.876C48.7088 189.772 48.7441 189.674 48.7856 189.569C50.7848 188.115 52.6232 186.472 53.7628 184.221C55.0419 181.705 55.5453 178.867 56.5242 176.239C56.6149 175.987 56.3467 176.061 56.1708 176.19C51.5105 179.627 50.0254 183.326 48.6881 188.268C48.7508 185.703 48.9468 183.138 49.499 180.572C50.5059 175.882 52.4978 171.233 55.8673 167.752C55.9922 167.62 55.7962 167.417 55.6635 167.55Z" fill="#8A8A8A"></path><path d="M57.1031 168.424C58.4214 168.468 59.2474 170.575 60.2744 171.19C60.8176 171.517 61.3468 171.497 61.7287 170.962C62.7468 169.541 61.3502 167.788 60.037 166.808C60.9761 167.194 61.755 167.873 62.7675 168.065C63.3807 168.178 63.8573 167.95 64.0006 167.327C64.447 165.39 62.0177 164.529 60.3506 164.488C61.1586 163.926 63.4748 162.399 62.2445 161.648C60.9974 160.894 58.2797 163.078 57.3932 163.798C56.0906 164.854 54.5366 166.434 54.4778 168.088C54.4017 170.017 56.089 168.829 57.1031 168.424Z" fill="#F0F0F0"></path><path d="M56.7218 168.749C58.4068 167.983 61.6442 169.085 61.9197 168.448C62.478 167.15 59.8908 166.259 58.4947 166.087C59.781 165.738 62.2445 165.183 62.1689 163.943C62.0765 162.429 58.3894 163.731 56.5235 165.162C54.1726 166.964 54.1878 168.704 54.5764 169.052C55.1095 169.53 56.444 168.875 56.7218 168.749Z" fill="#F3F4F6"></path><path d="M38.2155 166.808C46.1563 174.011 47.8833 185.557 46.6564 195.775C46.6233 196.008 46.2644 195.958 46.2565 195.742C46.1686 193.429 46.1512 191.136 46.0572 188.852C46.0112 188.749 45.9726 188.653 45.9267 188.549C43.8737 187.172 41.9742 185.601 40.75 183.395C39.3758 180.929 38.7654 178.112 37.6874 175.523C37.5872 175.275 37.8576 175.339 38.0385 175.461C42.826 178.718 44.4511 182.358 45.9754 187.246C45.8152 184.685 45.5218 182.129 44.8722 179.586C43.6878 174.938 41.52 170.368 38.0212 167.018C37.8901 166.889 38.0777 166.679 38.2155 166.808Z" fill="#8A8A8A"></path><path d="M36.81 167.736C35.4945 167.831 34.7491 169.967 33.7462 170.621C33.2153 170.968 32.6861 170.968 32.284 170.448C31.2127 169.067 32.5416 167.262 33.8167 166.233C32.8927 166.654 32.1407 167.362 31.136 167.593C30.5273 167.728 30.0423 167.519 29.876 166.902C29.3563 164.983 31.7515 164.03 33.4152 163.926C32.5864 163.395 30.2143 161.957 31.4149 161.16C32.6323 160.359 35.4312 162.438 36.344 163.123C37.6863 164.13 39.2986 165.649 39.4207 167.299C39.5702 169.225 37.8387 168.102 36.81 167.736Z" fill="#F0F0F0"></path><path d="M37.2036 168.046C35.4905 167.344 32.2974 168.569 31.9984 167.943C31.3913 166.667 33.9427 165.679 35.3315 165.453C34.0328 165.154 31.5498 164.693 31.5784 163.45C31.6131 161.933 35.3466 163.095 37.2663 164.454C39.6844 166.166 39.7348 167.905 39.3596 168.268C38.8444 168.765 37.4864 168.162 37.2036 168.046Z" fill="#F3F4F6"></path><path d="M46.3362 185.832C46.9225 189.629 47.6494 193.554 48.8019 197.222C48.9122 197.557 49.4084 197.471 49.3568 197.11C48.8349 193.6 47.8846 190.155 47.3627 186.645C46.8329 183.094 46.5496 179.493 46.7528 175.901C47.0872 169.986 48.6932 163.694 52.5528 159.066C52.6373 158.956 52.4576 158.801 52.3702 158.903C44.6428 167.913 45.8725 178.959 45.8792 179.95C44.7856 176.219 43.6583 171.944 39.5199 168.146C39.3412 167.982 39.2024 168.06 39.232 168.338C39.9724 175.256 41.8954 178.868 45.9061 182.567C46.0209 183.664 46.162 184.755 46.3362 185.832Z" fill="#8A8A8A"></path><path d="M52.6227 160.103C54.0126 159.486 55.93 161.255 57.3054 161.376C58.0339 161.442 58.5727 161.155 58.6992 160.407C59.0403 158.42 56.709 157.305 54.8531 156.949C56.0219 156.876 57.1721 157.188 58.319 156.879C59.0123 156.687 59.3919 156.211 59.2267 155.492C58.7143 153.258 55.7603 153.586 54.0103 154.383C54.5659 153.394 56.1999 150.644 54.5457 150.484C52.8724 150.329 51.1515 153.962 50.5938 155.155C49.7739 156.908 48.9575 159.329 49.7286 161.074C50.6212 163.115 51.7743 161.033 52.6227 160.103Z" fill="#F0F0F0"></path><path d="M52.3908 160.632C53.7538 158.989 57.6677 158.503 57.6318 157.703C57.5574 156.075 54.4247 156.454 52.8892 156.977C54.0478 155.968 56.3254 154.152 55.6226 152.904C54.7641 151.379 51.5945 154.586 50.3787 157.01C48.8471 160.064 49.7381 161.861 50.3171 162.027C51.1106 162.254 52.1657 160.904 52.3908 160.632Z" fill="#F3F4F6"></path><path d="M41.2523 187.915L37.8447 213.953H58.5826C58.1554 211.646 54.2958 187.884 54.2958 187.884L41.2523 187.915Z" fill="#F0F0F0"></path><path d="M243.484 111.792H258.313V105.526H243.484V111.792Z" fill="#F3F4F6"></path><path d="M251.756 103.89H266.585V97.6235H251.756V103.89Z" fill="#F3F4F6"></path><path d="M235.212 103.89H250.041V97.6235H235.212V103.89Z" fill="#F3F4F6"></path><path d="M21.6868 192.613H36.5161V186.346H21.6868V192.613Z" fill="#F3F4F6"></path><path d="M13.4148 184.711H28.2441V178.445H13.4148V184.711Z" fill="#F3F4F6"></path><path d="M251.756 192.606H266.585V186.34H251.756V192.606Z" fill="#F3F4F6"></path><path d="M77.7879 53.3472H62.9585V59.6136H77.7879V53.3472Z" fill="#F3F4F6"></path><path d="M69.5156 61.2483H54.6868V67.5147H69.5156V61.2483Z" fill="#F3F4F6"></path><path d="M32.4519 213.932L59.3386 213.796L86.2259 213.747L140 213.653L193.774 213.746L220.661 213.795L247.548 213.932L220.661 214.069L193.774 214.118L140 214.212L86.2259 214.118L59.3386 214.068L32.4519 213.932Z" fill="#3D3D3D"></path><path d="M97.1062 134.333C97.1062 134.327 97.1062 134.327 97.1 134.327C96.9566 134.165 96.8004 134.009 96.6386 133.866C96.6386 133.86 96.6386 133.86 96.6324 133.86C96.489 133.697 96.3328 133.541 96.1704 133.398C96.1704 133.392 96.1704 133.392 96.1642 133.392C96.0209 133.23 95.8646 133.074 95.7028 132.931C95.7028 132.924 95.7028 132.924 95.6966 132.924C95.5533 132.762 95.397 132.606 95.2352 132.463C95.2352 132.457 95.2352 132.457 95.229 132.457C95.0857 132.294 94.9294 132.139 94.767 131.995C94.767 131.989 94.767 131.989 94.7609 131.989C94.6175 131.827 94.4613 131.671 94.2994 131.528C94.2994 131.522 94.2994 131.522 94.2933 131.522C94.1499 131.359 93.9937 131.203 93.8318 131.06C93.8318 131.054 93.8318 131.054 93.8257 131.054C93.6823 130.892 93.5261 130.736 93.3642 130.593C93.3642 130.586 93.3642 130.586 93.3581 130.586C93.2147 130.424 93.0585 130.268 92.8961 130.125C92.8961 130.119 92.8961 130.119 92.8899 130.119C92.4156 129.601 91.8668 129.158 91.2491 128.802V82.5843C91.2491 82.3412 91.1304 82.2163 91.1304 81.9727C91.1304 81.6048 91.1304 81.4799 91.0055 81.2363C91.0055 81.1115 90.8868 80.8684 90.8868 80.7435C90.7619 80.3756 90.7619 80.2507 90.637 80.0071C90.5122 79.8823 90.3934 79.6392 90.3934 79.5143C90.1437 79.1464 90.0255 79.0215 89.9006 78.9028C89.7758 78.7779 89.6576 78.5349 89.5327 78.41L89.0399 77.9172C89.0399 77.8422 88.9464 77.7677 88.8406 77.7179C88.7784 77.6557 88.6972 77.5745 88.597 77.4743L88.5723 77.4496C88.5723 77.3746 88.4788 77.3001 88.3724 77.2497C88.3102 77.1875 88.229 77.1063 88.1288 77.0067L88.1042 76.9815C88.1042 76.9064 88.0106 76.8319 87.9048 76.7815C87.8426 76.7194 87.7614 76.6382 87.6612 76.5385L87.636 76.5133C87.636 76.4383 87.5425 76.3638 87.4366 76.3134C87.3745 76.2512 87.2933 76.17 87.193 76.0703L87.1678 76.0451C87.1678 75.9701 87.0743 75.8956 86.9685 75.8458C86.9063 75.7836 86.8251 75.7024 86.7249 75.6022L86.7002 75.577C86.7002 75.5019 86.6067 75.4275 86.5003 75.3771C86.4382 75.3149 86.357 75.2337 86.2567 75.134L86.2315 75.1088C86.2315 75.0338 86.138 74.9593 86.0322 74.9089C85.97 74.8467 85.8888 74.7655 85.7886 74.6659L85.7634 74.6407C85.7634 74.5656 85.6698 74.4911 85.564 74.4413C85.5018 74.3791 85.4206 74.2979 85.3204 74.1977L85.2958 74.1725C85.2958 74.0975 85.2022 74.023 85.0958 73.9731C85.0337 73.911 84.9525 73.8298 84.8522 73.7295L84.8276 73.7043C84.8276 73.6293 84.7341 73.5548 84.6282 73.5044L84.36 73.2362C84.36 73.1175 84.117 72.9926 83.9921 72.9926C83.9921 72.8677 83.8734 72.8677 83.8734 72.8677C83.6236 72.749 83.4993 72.6241 83.2557 72.4998C83.1308 72.3749 82.8878 72.2567 82.6442 72.007C82.5193 72.007 82.2762 71.8883 82.1514 71.8883C81.9078 71.7634 81.5337 71.7634 81.415 71.6385C81.1719 71.6385 81.047 71.6385 80.7973 71.5198H80.0609C79.9422 71.5198 79.9422 71.5198 79.8173 71.5198C79.6924 71.5198 79.5742 71.5198 79.5742 71.5198H78.7135C78.5886 71.6385 78.3456 71.6385 78.2207 71.6385C77.8528 71.7634 77.6092 71.7634 77.4843 71.8883C77.2413 71.8883 77.1164 72.007 76.9915 72.2562C76.6236 72.2562 76.5049 72.3749 76.2551 72.4992C76.1364 72.6241 75.8872 72.749 75.7623 72.8671C75.6436 72.992 75.5193 73.1169 75.1508 73.2351C75.0321 73.4848 74.9072 73.603 74.7829 73.7279C74.658 73.8527 74.658 73.9715 74.5393 73.9715L29.1076 130.459C26.9051 133.235 27.1112 137.109 29.7191 139.493C29.8625 139.661 30.0187 139.817 30.1873 139.961C30.3306 140.129 30.4869 140.285 30.6554 140.428C30.7988 140.597 30.955 140.753 31.123 140.897C31.2664 141.065 31.4226 141.221 31.5912 141.365C31.7346 141.533 31.8908 141.689 32.0594 141.833C32.2027 142.001 32.359 142.157 32.5275 142.3C32.6709 142.469 32.8271 142.625 32.9951 142.769C33.1385 142.937 33.2947 143.093 33.4633 143.237C33.6066 143.405 33.7629 143.561 33.9314 143.705C34.212 144.023 34.5368 144.323 34.8924 144.591C36.1216 145.695 37.5938 146.063 39.0661 146.063H73.0682V150.717C73.0682 152.751 73.9042 154.535 75.2645 155.758L75.283 155.777C75.4263 155.934 75.5764 156.083 75.7321 156.227C75.7382 156.233 75.7444 156.233 75.7444 156.239C75.8878 156.401 76.044 156.551 76.1997 156.694L76.2187 156.713C76.3621 156.869 76.5122 157.018 76.6678 157.162C76.674 157.168 76.6802 157.168 76.6802 157.174C76.8235 157.336 76.9798 157.486 77.1354 157.629L77.1539 157.648C77.2973 157.805 77.4474 157.954 77.603 158.097C77.6092 158.104 77.6154 158.104 77.6154 158.11C77.7587 158.272 77.915 158.422 78.0706 158.565L78.0891 158.584C78.2325 158.74 78.382 158.889 78.5382 159.033C78.5444 159.039 78.5506 159.039 78.5506 159.045C78.6939 159.207 78.8502 159.357 79.0058 159.5L79.0243 159.519C79.1677 159.676 79.3178 159.825 79.4734 159.968C79.4796 159.975 79.4858 159.975 79.4858 159.981C80.7088 161.322 82.4806 162.152 84.4955 162.152C88.3013 162.152 91.2463 159.201 91.2463 155.395V146.061H92.4755C96.2813 146.061 99.3506 143.116 99.3506 139.311C99.3523 137.359 98.4849 135.575 97.1062 134.333ZM73.0676 108.036V127.882H57.0774L73.0676 108.036Z" fill="#FAB005"></path><path opacity="0.1" d="M97.1062 134.333C97.1062 134.327 97.1062 134.327 97.1 134.327C96.9566 134.165 96.8004 134.009 96.6386 133.866C96.6386 133.86 96.6386 133.86 96.6324 133.86C96.489 133.697 96.3328 133.541 96.1704 133.398C96.1704 133.392 96.1704 133.392 96.1642 133.392C96.0209 133.23 95.8646 133.074 95.7028 132.931C95.7028 132.924 95.7028 132.924 95.6966 132.924C95.5533 132.762 95.397 132.606 95.2352 132.463C95.2352 132.457 95.2352 132.457 95.229 132.457C95.0857 132.294 94.9294 132.139 94.767 131.995C94.767 131.989 94.767 131.989 94.7609 131.989C94.6175 131.827 94.4613 131.671 94.2994 131.528C94.2994 131.522 94.2994 131.522 94.2933 131.522C94.1499 131.359 93.9937 131.203 93.8318 131.06C93.8318 131.054 93.8318 131.054 93.8257 131.054C93.6823 130.892 93.5261 130.736 93.3642 130.593C93.3642 130.586 93.3642 130.586 93.3581 130.586C93.2147 130.424 93.0585 130.268 92.8961 130.125C92.8961 130.119 92.8961 130.119 92.8899 130.119C92.4156 129.601 91.8668 129.158 91.2491 128.802V82.5843C91.2491 82.3412 91.1304 82.2163 91.1304 81.9727C91.1304 81.6048 91.1304 81.4799 91.0055 81.2363C91.0055 81.1115 90.8868 80.8684 90.8868 80.7435C90.7619 80.3756 90.7619 80.2507 90.637 80.0071C90.5122 79.8823 90.3934 79.6392 90.3934 79.5143C90.1437 79.1464 90.0255 79.0215 89.9006 78.9028C89.7758 78.7779 89.6576 78.5349 89.5327 78.41L89.0399 77.9172C89.0399 77.8422 88.9464 77.7677 88.8406 77.7179C88.7784 77.6557 88.6972 77.5745 88.597 77.4743L88.5723 77.4496C88.5723 77.3746 88.4788 77.3001 88.3724 77.2497C88.3102 77.1875 88.229 77.1063 88.1288 77.0067L88.1042 76.9815C88.1042 76.9064 88.0106 76.8319 87.9048 76.7815C87.8426 76.7194 87.7614 76.6382 87.6612 76.5385L87.636 76.5133C87.636 76.4383 87.5425 76.3638 87.4366 76.3134C87.3745 76.2512 87.2933 76.17 87.193 76.0703L87.1678 76.0451C87.1678 75.9701 87.0743 75.8956 86.9685 75.8458C86.9063 75.7836 86.8251 75.7024 86.7249 75.6022L86.7002 75.577C86.7002 75.5019 86.6067 75.4275 86.5003 75.3771C86.4382 75.3149 86.357 75.2337 86.2567 75.134L86.2315 75.1088C86.2315 75.0338 86.138 74.9593 86.0322 74.9089C85.97 74.8467 85.8888 74.7655 85.7886 74.6659L85.7634 74.6407C85.7634 74.5656 85.6698 74.4911 85.564 74.4413C85.5018 74.3791 85.4206 74.2979 85.3204 74.1977L85.2958 74.1725C85.2958 74.0975 85.2022 74.023 85.0958 73.9731C85.0337 73.911 84.9525 73.8298 84.8522 73.7295L84.8276 73.7043C84.8276 73.6293 84.7341 73.5548 84.6282 73.5044L84.36 73.2362C84.36 73.1175 84.117 72.9926 83.9921 72.9926C83.9921 72.8677 83.8734 72.8677 83.8734 72.8677C83.6236 72.749 83.4993 72.6241 83.2557 72.4998C83.1308 72.3749 82.8878 72.2567 82.6442 72.007C82.5193 72.007 82.2762 71.8883 82.1514 71.8883C81.9078 71.7634 81.5337 71.7634 81.415 71.6385C81.1719 71.6385 81.047 71.6385 80.7973 71.5198H80.0609C79.9422 71.5198 79.9422 71.5198 79.8173 71.5198C79.6924 71.5198 79.5742 71.5198 79.5742 71.5198H78.7135C78.5886 71.6385 78.3456 71.6385 78.2207 71.6385C77.8528 71.7634 77.6092 71.7634 77.4843 71.8883C77.2413 71.8883 77.1164 72.007 76.9915 72.2562C76.6236 72.2562 76.5049 72.3749 76.2551 72.4992C76.1364 72.6241 75.8872 72.749 75.7623 72.8671C75.6436 72.992 75.5193 73.1169 75.1508 73.2351C75.0321 73.4848 74.9072 73.603 74.7829 73.7279C74.658 73.8527 74.658 73.9715 74.5393 73.9715L29.1076 130.459C26.9051 133.235 27.1112 137.109 29.7191 139.493C29.8625 139.661 30.0187 139.817 30.1873 139.961C30.3306 140.129 30.4869 140.285 30.6554 140.428C30.7988 140.597 30.955 140.753 31.123 140.897C31.2664 141.065 31.4226 141.221 31.5912 141.365C31.7346 141.533 31.8908 141.689 32.0594 141.833C32.2027 142.001 32.359 142.157 32.5275 142.3C32.6709 142.469 32.8271 142.625 32.9951 142.769C33.1385 142.937 33.2947 143.093 33.4633 143.237C33.6066 143.405 33.7629 143.561 33.9314 143.705C34.212 144.023 34.5368 144.323 34.8924 144.591C36.1216 145.695 37.5938 146.063 39.0661 146.063H73.0682V150.717C73.0682 152.751 73.9042 154.535 75.2645 155.758L75.283 155.777C75.4263 155.934 75.5764 156.083 75.7321 156.227C75.7382 156.233 75.7444 156.233 75.7444 156.239C75.8878 156.401 76.044 156.551 76.1997 156.694L76.2187 156.713C76.3621 156.869 76.5122 157.018 76.6678 157.162C76.674 157.168 76.6802 157.168 76.6802 157.174C76.8235 157.336 76.9798 157.486 77.1354 157.629L77.1539 157.648C77.2973 157.805 77.4474 157.954 77.603 158.097C77.6092 158.104 77.6154 158.104 77.6154 158.11C77.7587 158.272 77.915 158.422 78.0706 158.565L78.0891 158.584C78.2325 158.74 78.382 158.889 78.5382 159.033C78.5444 159.039 78.5506 159.039 78.5506 159.045C78.6939 159.207 78.8502 159.357 79.0058 159.5L79.0243 159.519C79.1677 159.676 79.3178 159.825 79.4734 159.968C79.4796 159.975 79.4858 159.975 79.4858 159.981C80.7088 161.322 82.4806 162.152 84.4955 162.152C88.3013 162.152 91.2463 159.201 91.2463 155.395V146.061H92.4755C96.2813 146.061 99.3506 143.116 99.3506 139.311C99.3523 137.359 98.4849 135.575 97.1062 134.333ZM73.0676 108.036V127.882H57.0774L73.0676 108.036Z" fill="#111928"></path><path d="M94.6754 134.632C94.6754 138.438 91.606 141.385 87.7986 141.385H86.5711V150.718C86.5711 154.524 83.6244 157.471 79.8186 157.471C76.0112 157.471 73.0644 154.524 73.0644 150.718V141.385H34.6311H34.5079H34.3852C32.9119 141.385 31.4385 141.017 30.2099 139.912C27.1405 137.579 26.772 133.404 29.1056 130.457L74.5384 73.9727C74.661 73.9727 74.661 73.8501 74.7842 73.7274C74.9074 73.6048 75.03 73.4816 75.1527 73.2357C75.52 73.1125 75.6427 72.9905 75.7659 72.8678C75.8891 72.7452 76.1344 72.622 76.2576 72.4993C76.5034 72.3767 76.626 72.2535 76.9934 72.2535C77.1166 72.0082 77.2392 71.8856 77.4851 71.8856C77.6083 71.7624 77.8536 71.7624 78.2226 71.6397C78.3458 71.6397 78.59 71.6397 78.7126 71.5171C78.9584 71.5171 79.3269 71.5171 79.5728 71.5171C79.5728 71.5171 79.6954 71.5171 79.8186 71.5171C79.9418 71.5171 79.9418 71.5171 80.0628 71.5171C80.3086 71.5171 80.6771 71.5171 80.8003 71.5171C81.0461 71.6397 81.1688 71.6397 81.4146 71.6397C81.5361 71.7629 81.9046 71.7629 82.1504 71.8856C82.2736 71.8856 82.5189 72.0082 82.6421 72.0082C82.888 72.2535 83.1321 72.3761 83.2553 72.4993C83.5012 72.622 83.6238 72.7452 83.8696 72.8678C83.8696 72.8678 83.9923 72.8678 83.9923 72.991C84.1149 72.991 84.3608 73.1131 84.3608 73.2363C84.6066 73.4821 84.7281 73.6048 84.8508 73.728C84.9734 73.85 85.0966 74.0959 85.2198 74.2191C85.3424 74.3423 85.4656 74.4649 85.7115 74.8329C85.7115 74.9561 85.8347 75.2013 85.9573 75.3245C86.08 75.5698 86.08 75.6925 86.2032 76.0615C86.2032 76.1836 86.3247 76.4294 86.3247 76.5526C86.4479 76.7985 86.4479 76.9205 86.4479 77.289C86.4479 77.5349 86.5711 77.6575 86.5711 77.9028C86.5711 78.0254 86.5711 78.1486 86.5711 78.2718V127.879H87.7986C91.6055 127.879 94.6754 130.948 94.6754 134.632ZM73.0644 97.5493L48.6288 127.879H73.0644V97.5493Z" fill="#FAB005"></path><path d="M166.505 89.8244C165.107 87.697 163.497 85.7252 161.701 83.9786C161.633 83.9035 161.564 83.8352 161.489 83.7725C161.47 83.7534 161.451 83.7288 161.427 83.7098C161.371 83.6476 161.314 83.5849 161.252 83.5289C161.096 83.3603 160.928 83.2046 160.765 83.0422C160.753 83.0299 160.734 83.0109 160.722 83.0047C160.666 82.9487 160.609 82.8922 160.553 82.8362C160.535 82.8177 160.515 82.7925 160.491 82.774C160.435 82.7118 160.378 82.6491 160.316 82.5931C160.16 82.4246 159.992 82.2689 159.829 82.1065C159.817 82.0942 159.798 82.0751 159.786 82.069C159.73 82.013 159.673 81.9564 159.617 81.9004C159.599 81.8814 159.58 81.8567 159.555 81.8377C159.499 81.7755 159.443 81.7128 159.38 81.6568C159.224 81.4882 159.056 81.3326 158.894 81.1702C158.881 81.1578 158.862 81.1388 158.85 81.1326C158.794 81.0766 158.737 81.0201 158.681 80.9641C158.663 80.9456 158.644 80.9204 158.619 80.9019C158.563 80.8398 158.507 80.777 158.445 80.721C158.288 80.5525 158.12 80.3968 157.958 80.2344C157.946 80.2221 157.927 80.203 157.914 80.1969C157.858 80.1347 157.808 80.0782 157.746 80.0283C157.727 80.0093 157.708 79.9846 157.684 79.9662C152.755 74.8814 146.322 71.5186 139.11 71.5186C129.409 71.5186 121.429 77.2894 116.269 85.1445C110.866 93.0058 108.046 103.2 107.921 114.492C108.046 125.666 110.866 135.979 116.269 143.84C117.66 145.918 119.251 147.871 121.023 149.605C121.104 149.686 121.186 149.761 121.266 149.842C121.279 149.848 121.291 149.861 121.298 149.873C121.441 150.023 121.591 150.167 121.734 150.31C121.809 150.391 121.884 150.466 121.959 150.541C122.04 150.622 122.121 150.697 122.203 150.778C122.215 150.784 122.228 150.796 122.234 150.809C122.377 150.958 122.527 151.102 122.671 151.246C122.746 151.327 122.82 151.402 122.895 151.476C122.976 151.558 123.058 151.633 123.138 151.713C123.151 151.72 123.163 151.732 123.17 151.745C123.313 151.894 123.463 152.038 123.606 152.182C123.681 152.263 123.756 152.338 123.831 152.412C123.912 152.493 123.993 152.568 124.074 152.649C124.086 152.655 124.099 152.668 124.105 152.68C124.249 152.83 124.399 152.974 124.542 153.117C124.617 153.198 124.692 153.274 124.767 153.348C124.848 153.429 124.929 153.504 125.01 153.585C125.022 153.591 125.035 153.604 125.041 153.616C125.185 153.766 125.335 153.91 125.478 154.053C130.332 158.901 136.589 162.151 143.789 162.151C153.241 162.151 161.346 156.256 166.505 148.519C171.783 140.658 174.734 130.345 174.734 119.171C174.734 107.88 171.783 97.6857 166.505 89.8244ZM150.527 136.23C146.964 141.508 142.915 143.841 139.109 143.841C137.013 143.841 134.805 143.136 132.634 141.614C132.459 141.39 132.29 141.153 132.122 140.909C128.684 135.749 126.226 127.895 126.226 119.173C126.226 110.332 128.684 102.596 132.122 97.3178C135.809 92.1579 139.983 89.7062 143.789 89.825C145.81 89.7628 147.9 90.4242 149.953 91.8404C150.146 92.1025 150.34 92.3646 150.527 92.639C153.965 97.917 156.422 105.653 156.422 114.494C156.422 123.216 153.964 131.07 150.527 136.23Z" fill="#FAB005"></path><path opacity="0.1" d="M166.505 89.8244C165.107 87.697 163.497 85.7252 161.701 83.9786C161.633 83.9035 161.564 83.8352 161.489 83.7725C161.47 83.7534 161.451 83.7288 161.427 83.7098C161.371 83.6476 161.314 83.5849 161.252 83.5289C161.096 83.3603 160.928 83.2046 160.765 83.0422C160.753 83.0299 160.734 83.0109 160.722 83.0047C160.666 82.9487 160.609 82.8922 160.553 82.8362C160.535 82.8177 160.515 82.7925 160.491 82.774C160.435 82.7118 160.378 82.6491 160.316 82.5931C160.16 82.4246 159.992 82.2689 159.829 82.1065C159.817 82.0942 159.798 82.0751 159.786 82.069C159.73 82.013 159.673 81.9564 159.617 81.9004C159.599 81.8814 159.58 81.8567 159.555 81.8377C159.499 81.7755 159.443 81.7128 159.38 81.6568C159.224 81.4882 159.056 81.3326 158.894 81.1702C158.881 81.1578 158.862 81.1388 158.85 81.1326C158.794 81.0766 158.737 81.0201 158.681 80.9641C158.663 80.9456 158.644 80.9204 158.619 80.9019C158.563 80.8398 158.507 80.777 158.445 80.721C158.288 80.5525 158.12 80.3968 157.958 80.2344C157.946 80.2221 157.927 80.203 157.914 80.1969C157.858 80.1347 157.808 80.0782 157.746 80.0283C157.727 80.0093 157.708 79.9846 157.684 79.9662C152.755 74.8814 146.322 71.5186 139.11 71.5186C129.409 71.5186 121.429 77.2894 116.269 85.1445C110.866 93.0058 108.046 103.2 107.921 114.492C108.046 125.666 110.866 135.979 116.269 143.84C117.66 145.918 119.251 147.871 121.023 149.605C121.104 149.686 121.186 149.761 121.266 149.842C121.279 149.848 121.291 149.861 121.298 149.873C121.441 150.023 121.591 150.167 121.734 150.31C121.809 150.391 121.884 150.466 121.959 150.541C122.04 150.622 122.121 150.697 122.203 150.778C122.215 150.784 122.228 150.796 122.234 150.809C122.377 150.958 122.527 151.102 122.671 151.246C122.746 151.327 122.82 151.402 122.895 151.476C122.976 151.558 123.058 151.633 123.138 151.713C123.151 151.72 123.163 151.732 123.17 151.745C123.313 151.894 123.463 152.038 123.606 152.182C123.681 152.263 123.756 152.338 123.831 152.412C123.912 152.493 123.993 152.568 124.074 152.649C124.086 152.655 124.099 152.668 124.105 152.68C124.249 152.83 124.399 152.974 124.542 153.117C124.617 153.198 124.692 153.274 124.767 153.348C124.848 153.429 124.929 153.504 125.01 153.585C125.022 153.591 125.035 153.604 125.041 153.616C125.185 153.766 125.335 153.91 125.478 154.053C130.332 158.901 136.589 162.151 143.789 162.151C153.241 162.151 161.346 156.256 166.505 148.519C171.783 140.658 174.734 130.345 174.734 119.171C174.734 107.88 171.783 97.6857 166.505 89.8244ZM150.527 136.23C146.964 141.508 142.915 143.841 139.109 143.841C137.013 143.841 134.805 143.136 132.634 141.614C132.459 141.39 132.29 141.153 132.122 140.909C128.684 135.749 126.226 127.895 126.226 119.173C126.226 110.332 128.684 102.596 132.122 97.3178C135.809 92.1579 139.983 89.7062 143.789 89.825C145.81 89.7628 147.9 90.4242 149.953 91.8404C150.146 92.1025 150.34 92.3646 150.527 92.639C153.965 97.917 156.422 105.653 156.422 114.494C156.422 123.216 153.964 131.07 150.527 136.23Z" fill="#111928"></path><path d="M107.919 114.494C108.043 103.197 110.866 93.0054 116.27 85.1469C121.426 77.2885 129.407 71.5171 139.108 71.5171C148.564 71.5171 156.667 77.2885 161.826 85.1469C167.105 93.0054 170.052 103.197 170.052 114.494C170.052 125.667 167.105 135.982 161.826 143.841C156.667 151.577 148.564 157.471 139.108 157.471C129.407 157.471 121.426 151.577 116.27 143.841C110.866 135.983 108.043 125.668 107.919 114.494ZM156.421 114.494C156.421 105.653 153.966 97.9172 150.528 92.6369C146.966 87.4799 142.916 85.0243 139.108 85.1469C135.301 85.0237 131.126 87.4799 127.444 92.6369C124.005 97.9177 121.549 105.653 121.549 114.494C121.549 123.212 124.005 131.071 127.444 136.228C131.126 141.508 135.301 143.841 139.108 143.841C142.916 143.841 146.966 141.508 150.528 136.228C153.966 131.071 156.421 123.213 156.421 114.494Z" fill="#FAB005"></path><path d="M250.16 134.333C250.16 134.327 250.16 134.327 250.154 134.327C250.005 134.165 249.848 134.009 249.693 133.865C249.693 133.859 249.693 133.859 249.686 133.859C249.537 133.697 249.381 133.541 249.225 133.398C249.225 133.392 249.225 133.392 249.219 133.392C249.069 133.229 248.913 133.074 248.757 132.93C248.757 132.924 248.757 132.924 248.751 132.924C248.602 132.762 248.446 132.606 248.29 132.463C248.29 132.456 248.29 132.457 248.284 132.457C248.134 132.294 247.978 132.138 247.822 131.995C247.822 131.989 247.822 131.989 247.816 131.989C247.667 131.826 247.51 131.671 247.355 131.527C247.355 131.521 247.355 131.521 247.348 131.521C247.199 131.359 247.043 131.203 246.887 131.06C246.887 131.054 246.887 131.054 246.881 131.054C246.731 130.891 246.575 130.736 246.419 130.592C246.419 130.586 246.419 130.586 246.413 130.586C246.264 130.424 246.108 130.268 245.952 130.125C245.952 130.119 245.952 130.118 245.946 130.118C245.471 129.601 244.916 129.151 244.299 128.802V82.584C244.299 82.341 244.18 82.2161 244.18 81.9725C244.18 81.6046 244.18 81.4797 244.055 81.2361C244.055 81.1112 243.936 80.8682 243.936 80.7433C243.812 80.3754 243.812 80.2505 243.687 80.0069C243.568 79.882 243.443 79.639 243.443 79.5141C243.2 79.1462 243.075 79.0213 242.95 78.9026C242.825 78.7777 242.707 78.5347 242.582 78.4098L242.09 77.917C242.09 77.8419 241.996 77.7675 241.89 77.7176C241.827 77.6555 241.746 77.5742 241.647 77.474L241.621 77.4494C241.621 77.3743 241.528 77.2999 241.421 77.2495C241.359 77.1873 241.278 77.1061 241.178 77.0064L241.154 76.9812C241.154 76.9062 241.06 76.8317 240.954 76.7813C240.892 76.7191 240.81 76.6379 240.71 76.5383L240.685 76.5131C240.685 76.438 240.592 76.3635 240.485 76.3131C240.423 76.251 240.342 76.1698 240.242 76.0701L240.216 76.0449C240.216 75.9699 240.123 75.8954 240.016 75.8455C239.954 75.7834 239.873 75.7022 239.773 75.6019L239.748 75.5767C239.748 75.5017 239.655 75.4272 239.548 75.3768C239.486 75.3147 239.405 75.2335 239.305 75.1338L239.279 75.1086C239.279 75.0335 239.186 74.9591 239.08 74.9087C239.018 74.8465 238.937 74.7653 238.836 74.6656L238.811 74.6404C238.811 74.5654 238.718 74.4909 238.611 74.441C238.549 74.3789 238.468 74.2977 238.368 74.1975L238.343 74.1723C238.343 74.0972 238.25 74.0227 238.143 73.9729C238.081 73.9107 238 73.8295 237.9 73.7293L237.875 73.7041C237.875 73.6291 237.781 73.5546 237.676 73.5042L237.407 73.2359C237.407 73.1172 237.164 72.9923 237.039 72.9923C237.039 72.8675 236.915 72.8675 236.915 72.8675C236.672 72.7487 236.547 72.6239 236.303 72.4995C236.178 72.3747 235.935 72.2565 235.692 72.0067C235.567 72.0067 235.324 71.888 235.199 71.888C234.955 71.7631 234.587 71.7631 234.462 71.6383C234.213 71.6383 234.094 71.6383 233.845 71.5195H233.108C232.99 71.5195 232.99 71.5195 232.865 71.5195C232.746 71.5195 232.622 71.5195 232.622 71.5195H231.761C231.636 71.6383 231.393 71.6383 231.268 71.6383C230.9 71.7631 230.657 71.7631 230.532 71.888C230.288 71.888 230.164 72.0067 230.039 72.2559C229.677 72.2559 229.552 72.3747 229.302 72.499C229.184 72.6239 228.935 72.7487 228.816 72.8669C228.691 72.9918 228.566 73.1167 228.198 73.2348C228.073 73.4846 227.955 73.6027 227.83 73.7276C227.705 73.8525 227.705 73.9712 227.587 73.9712L182.155 130.458C179.952 133.235 180.159 137.109 182.766 139.492C182.91 139.661 183.066 139.817 183.235 139.961C183.378 140.129 183.534 140.285 183.703 140.428C183.846 140.597 184.002 140.752 184.17 140.896C184.314 141.065 184.47 141.221 184.639 141.364C184.782 141.533 184.938 141.689 185.107 141.833C185.25 142.001 185.406 142.157 185.575 142.3C185.718 142.469 185.874 142.624 186.043 142.768C186.186 142.937 186.343 143.093 186.511 143.237C186.655 143.405 186.811 143.561 186.979 143.705C187.26 144.023 187.585 144.322 187.94 144.591C189.17 145.695 190.642 146.063 192.114 146.063H226.116V150.717C226.116 152.745 226.952 154.535 228.312 155.758C228.319 155.764 228.325 155.764 228.325 155.77C228.468 155.933 228.624 156.082 228.78 156.226L228.799 156.245C228.942 156.401 229.092 156.55 229.248 156.694C229.254 156.7 229.26 156.7 229.26 156.706C229.404 156.869 229.56 157.018 229.716 157.161L229.734 157.18C229.878 157.336 230.028 157.486 230.183 157.629C230.19 157.635 230.196 157.635 230.196 157.641C230.339 157.804 230.495 157.953 230.651 158.097L230.67 158.116C230.813 158.272 230.963 158.421 231.119 158.565C231.125 158.571 231.131 158.571 231.131 158.577C231.275 158.74 231.431 158.889 231.587 159.032L231.605 159.051C231.749 159.208 231.899 159.357 232.054 159.501C232.06 159.507 232.067 159.507 232.067 159.513C232.21 159.675 232.366 159.825 232.522 159.968L232.541 159.987C233.764 161.328 235.529 162.152 237.545 162.152C241.35 162.152 244.295 159.2 244.295 155.395V146.061H245.525C249.336 146.061 252.406 143.116 252.406 139.31C252.406 137.359 251.539 135.575 250.16 134.333ZM226.116 108.036V127.882H210.125L226.116 108.036Z" fill="#FAB005"></path><path opacity="0.1" d="M250.16 134.333C250.16 134.327 250.16 134.327 250.154 134.327C250.005 134.165 249.848 134.009 249.693 133.865C249.693 133.859 249.693 133.859 249.686 133.859C249.537 133.697 249.381 133.541 249.225 133.398C249.225 133.392 249.225 133.392 249.219 133.392C249.069 133.229 248.913 133.074 248.757 132.93C248.757 132.924 248.757 132.924 248.751 132.924C248.602 132.762 248.446 132.606 248.29 132.463C248.29 132.456 248.29 132.457 248.284 132.457C248.134 132.294 247.978 132.138 247.822 131.995C247.822 131.989 247.822 131.989 247.816 131.989C247.667 131.826 247.51 131.671 247.355 131.527C247.355 131.521 247.355 131.521 247.348 131.521C247.199 131.359 247.043 131.203 246.887 131.06C246.887 131.054 246.887 131.054 246.881 131.054C246.731 130.891 246.575 130.736 246.419 130.592C246.419 130.586 246.419 130.586 246.413 130.586C246.264 130.424 246.108 130.268 245.952 130.125C245.952 130.119 245.952 130.118 245.946 130.118C245.471 129.601 244.916 129.151 244.299 128.802V82.584C244.299 82.341 244.18 82.2161 244.18 81.9725C244.18 81.6046 244.18 81.4797 244.055 81.2361C244.055 81.1112 243.936 80.8682 243.936 80.7433C243.812 80.3754 243.812 80.2505 243.687 80.0069C243.568 79.882 243.443 79.639 243.443 79.5141C243.2 79.1462 243.075 79.0213 242.95 78.9026C242.825 78.7777 242.707 78.5347 242.582 78.4098L242.09 77.917C242.09 77.8419 241.996 77.7675 241.89 77.7176C241.827 77.6555 241.746 77.5742 241.647 77.474L241.621 77.4494C241.621 77.3743 241.528 77.2999 241.421 77.2495C241.359 77.1873 241.278 77.1061 241.178 77.0064L241.154 76.9812C241.154 76.9062 241.06 76.8317 240.954 76.7813C240.892 76.7191 240.81 76.6379 240.71 76.5383L240.685 76.5131C240.685 76.438 240.592 76.3635 240.485 76.3131C240.423 76.251 240.342 76.1698 240.242 76.0701L240.216 76.0449C240.216 75.9699 240.123 75.8954 240.016 75.8455C239.954 75.7834 239.873 75.7022 239.773 75.6019L239.748 75.5767C239.748 75.5017 239.655 75.4272 239.548 75.3768C239.486 75.3147 239.405 75.2335 239.305 75.1338L239.279 75.1086C239.279 75.0335 239.186 74.9591 239.08 74.9087C239.018 74.8465 238.937 74.7653 238.836 74.6656L238.811 74.6404C238.811 74.5654 238.718 74.4909 238.611 74.441C238.549 74.3789 238.468 74.2977 238.368 74.1975L238.343 74.1723C238.343 74.0972 238.25 74.0227 238.143 73.9729C238.081 73.9107 238 73.8295 237.9 73.7293L237.875 73.7041C237.875 73.6291 237.781 73.5546 237.676 73.5042L237.407 73.2359C237.407 73.1172 237.164 72.9923 237.039 72.9923C237.039 72.8675 236.915 72.8675 236.915 72.8675C236.672 72.7487 236.547 72.6239 236.303 72.4995C236.178 72.3747 235.935 72.2565 235.692 72.0067C235.567 72.0067 235.324 71.888 235.199 71.888C234.955 71.7631 234.587 71.7631 234.462 71.6383C234.213 71.6383 234.094 71.6383 233.845 71.5195H233.108C232.99 71.5195 232.99 71.5195 232.865 71.5195C232.746 71.5195 232.622 71.5195 232.622 71.5195H231.761C231.636 71.6383 231.393 71.6383 231.268 71.6383C230.9 71.7631 230.657 71.7631 230.532 71.888C230.288 71.888 230.164 72.0067 230.039 72.2559C229.677 72.2559 229.552 72.3747 229.302 72.499C229.184 72.6239 228.935 72.7487 228.816 72.8669C228.691 72.9918 228.566 73.1167 228.198 73.2348C228.073 73.4846 227.955 73.6027 227.83 73.7276C227.705 73.8525 227.705 73.9712 227.587 73.9712L182.155 130.458C179.952 133.235 180.159 137.109 182.766 139.492C182.91 139.661 183.066 139.817 183.235 139.961C183.378 140.129 183.534 140.285 183.703 140.428C183.846 140.597 184.002 140.752 184.17 140.896C184.314 141.065 184.47 141.221 184.639 141.364C184.782 141.533 184.938 141.689 185.107 141.833C185.25 142.001 185.406 142.157 185.575 142.3C185.718 142.469 185.874 142.624 186.043 142.768C186.186 142.937 186.343 143.093 186.511 143.237C186.655 143.405 186.811 143.561 186.979 143.705C187.26 144.023 187.585 144.322 187.94 144.591C189.17 145.695 190.642 146.063 192.114 146.063H226.116V150.717C226.116 152.745 226.952 154.535 228.312 155.758C228.319 155.764 228.325 155.764 228.325 155.77C228.468 155.933 228.624 156.082 228.78 156.226L228.799 156.245C228.942 156.401 229.092 156.55 229.248 156.694C229.254 156.7 229.26 156.7 229.26 156.706C229.404 156.869 229.56 157.018 229.716 157.161L229.734 157.18C229.878 157.336 230.028 157.486 230.183 157.629C230.19 157.635 230.196 157.635 230.196 157.641C230.339 157.804 230.495 157.953 230.651 158.097L230.67 158.116C230.813 158.272 230.963 158.421 231.119 158.565C231.125 158.571 231.131 158.571 231.131 158.577C231.275 158.74 231.431 158.889 231.587 159.032L231.605 159.051C231.749 159.208 231.899 159.357 232.054 159.501C232.06 159.507 232.067 159.507 232.067 159.513C232.21 159.675 232.366 159.825 232.522 159.968L232.541 159.987C233.764 161.328 235.529 162.152 237.545 162.152C241.35 162.152 244.295 159.2 244.295 155.395V146.061H245.525C249.336 146.061 252.406 143.116 252.406 139.31C252.406 137.359 251.539 135.575 250.16 134.333ZM226.116 108.036V127.882H210.125L226.116 108.036Z" fill="#111928"></path><path d="M247.724 134.632C247.724 138.438 244.655 141.385 240.848 141.385H239.618V150.718C239.618 154.524 236.672 157.471 232.868 157.471C229.061 157.471 226.114 154.524 226.114 150.718V141.385H187.679H187.556H187.433C185.958 141.385 184.486 141.017 183.257 139.912C180.187 137.579 179.818 133.404 182.154 130.457L227.585 73.9727C227.708 73.9727 227.708 73.8501 227.83 73.7274C227.953 73.6048 228.076 73.4816 228.199 73.2357C228.568 73.1125 228.691 72.9905 228.813 72.8678C228.936 72.7452 229.182 72.622 229.305 72.4993C229.551 72.3767 229.673 72.2535 230.039 72.2535C230.162 72.0082 230.285 71.8856 230.531 71.8856C230.654 71.7624 230.899 71.7624 231.268 71.6397C231.392 71.6397 231.637 71.6397 231.76 71.5171C232.006 71.5171 232.374 71.5171 232.62 71.5171C232.62 71.5171 232.743 71.5171 232.866 71.5171C232.989 71.5171 232.989 71.5171 233.109 71.5171C233.355 71.5171 233.723 71.5171 233.847 71.5171C234.092 71.6397 234.216 71.6397 234.461 71.6397C234.584 71.7629 234.953 71.7629 235.198 71.8856C235.321 71.8856 235.567 72.0082 235.69 72.0082C235.936 72.2535 236.178 72.3761 236.302 72.4993C236.547 72.622 236.671 72.7452 236.916 72.8678C236.916 72.8678 237.039 72.8678 237.039 72.991C237.162 72.991 237.408 73.1131 237.408 73.2363C237.653 73.4821 237.776 73.6048 237.899 73.728C238.022 73.85 238.145 74.0959 238.268 74.2191C238.391 74.3423 238.514 74.4649 238.759 74.8329C238.759 74.9561 238.882 75.2013 239.005 75.3245C239.128 75.5698 239.128 75.6925 239.251 76.0615C239.251 76.1836 239.371 76.4294 239.371 76.5526C239.494 76.7985 239.494 76.9205 239.494 77.289C239.494 77.5349 239.617 77.6575 239.617 77.9028C239.617 78.0254 239.617 78.1486 239.617 78.2718V127.879H240.847C244.655 127.879 247.724 130.948 247.724 134.632ZM226.114 97.5493L201.676 127.879H226.114V97.5493Z" fill="#FAB005"></path><path d="M156.949 141.539C156.914 141.806 157.057 142.094 157.313 142.15C157.905 142.239 158.617 142.336 159.417 142.448C161.783 137.306 164.202 133.259 163.521 134.858C162.534 137.171 161.658 140.54 161.485 142.731C162.413 142.854 164.566 143.118 165.645 143.249C168.119 134.075 170.845 127.334 170.524 129.452C169.228 137.99 169.457 140.78 169.752 143.764C179.794 144.983 192.98 146.427 202.538 147.253C204.102 142.196 205.566 136.705 205.698 137.105C206.744 140.102 206.723 144.337 206.463 147.582C209.508 147.821 211.948 147.953 213.441 147.954C213.441 147.954 214.538 143.685 214.768 142.272C215.369 138.675 215.324 134.94 214.666 131.376C213.974 127.704 212.506 124.399 211.136 121.021C211.126 120.993 211.115 120.964 211.101 120.947C211.105 120.936 211.096 120.933 211.091 120.919C210.156 118.583 209.507 116.364 209.142 114.037C209.137 114.023 209.132 114.008 209.131 113.984C208.882 112.333 208.773 110.638 208.802 108.782C208.924 102.406 206.071 96.6812 200.643 94.6075C191.376 85.1368 178.647 89.4846 175.052 97.4898L175.041 97.5201C173.634 101.109 172.243 105.797 171.023 109.41C171.028 109.424 171.015 109.43 171.015 109.43C171.02 109.444 171.017 109.454 171.001 109.47L170.997 109.481C170.402 111.2 169.859 112.661 169.366 113.638C166.116 120.065 159.698 123.389 156.949 141.539Z" fill="#3D3D3D"></path><path d="M202.918 96.5288C206.396 98.8299 208.375 101.97 208.529 106.641C208.619 109.363 208.551 112.009 209.293 114.626C210.059 117.327 211.451 119.597 212.887 121.868C215.169 125.475 216.669 129.012 216.665 133.585C216.661 138.229 215.967 143.659 214.127 147.86C214.116 147.884 214.083 147.87 214.093 147.844C215.663 143.564 216.234 137.523 215.914 132.897C215.563 127.817 213.185 124.465 210.803 120.451C208.911 117.263 207.832 113.812 207.717 109.913C207.649 107.604 207.893 105.226 207.224 103.008C206.426 100.361 204.52 98.5767 202.616 96.9785C202.358 96.7607 202.653 96.3541 202.918 96.5288Z" fill="#3D3D3D"></path><path d="M162.599 120.294C165.503 116.883 168.466 114.011 170.378 109.657C172.12 105.69 173.292 101.45 175.057 97.4899C175.086 97.426 175.175 97.4596 175.147 97.5274C172.341 104.583 171.273 111.83 166.373 117.582C163.711 120.706 161.072 123.59 159.157 127.43C157.146 131.465 156.054 135.737 155.54 140.296C155.522 140.455 155.331 140.432 155.331 140.278C155.342 132.842 158.039 125.649 162.599 120.294Z" fill="#3D3D3D"></path><path d="M134.417 207.175C134.417 207.175 161.43 214.502 165.899 213.694C170.368 212.886 185.452 192.609 188.804 185.242C192.156 177.876 197.711 141.245 196.63 137.213C195.548 133.182 189.968 133.123 185.247 143.519C180.526 153.915 169.375 176.758 167.389 178.62C165.403 180.483 132.223 205.251 134.417 207.175Z" fill="#FFF0CD"></path><path d="M163.553 211.29C159.409 209.119 154.362 203.865 150.927 203.315C147.827 202.818 146.63 205.362 146.63 205.362C146.63 205.362 145.049 201.853 141.85 201.867C140.204 201.875 138.771 204.511 138.771 204.511C138.771 204.511 137.381 201.754 134.537 201.942C132.272 202.093 131.174 204.711 131.174 204.711C131.174 204.711 128.608 202.688 126.349 203.581C121.768 205.393 121.002 224.868 128.058 228.158C131.346 229.692 131.275 224.925 131.275 224.925C131.275 224.925 133.033 231.755 137.044 232.016C141.055 232.276 140.588 226.088 140.588 226.088C140.588 226.088 142.35 232.692 146.535 232.543C150.893 232.387 149.366 226.278 149.366 226.278C149.366 226.278 152.132 230.723 155.31 229.875C160.558 228.475 154.919 217.934 156.103 213.694H162.695L163.553 211.29Z" fill="#FFF0CD"></path><path d="M157.572 207.145C161.675 208.857 166.36 202.377 170.583 203.885C176.056 205.84 170.993 212.598 162.695 213.694H156.103L157.572 207.145Z" fill="#FFF0CD"></path><path d="M130.941 205.1C130.948 205.036 130.86 205.012 130.841 205.076C129.028 211.421 128.981 218.947 131.248 225.185C131.322 225.39 131.687 225.359 131.649 225.117C130.541 218.24 130.107 212.049 130.941 205.1Z" fill="#3D3D3D"></path><path d="M138.734 204.415C138.743 204.34 138.618 204.323 138.596 204.402C136.764 210.949 136.943 219.428 140.404 226.311C140.522 226.547 140.865 226.64 140.749 226.358C138.796 221.606 137.951 210.666 138.734 204.415Z" fill="#3D3D3D"></path><path d="M149.777 226.7C146.714 219.971 146.117 212.939 146.541 205.627C146.547 205.532 146.411 205.533 146.386 205.612C145.203 209.132 145.418 213.821 145.894 217.455C146.35 220.936 147.461 223.985 149.541 226.807C149.622 226.916 149.842 226.844 149.777 226.7Z" fill="#3D3D3D"></path><path d="M170.904 203.371C168.219 202.476 165.457 204.626 163.195 205.826C162.453 206.219 161.718 206.661 160.915 206.908C159.126 207.46 157.796 207.112 157.021 206.614C155.766 205.808 151.847 201.904 149.023 203.201C148.141 203.605 147.104 204.426 146.602 205.256C145.739 203.69 144.638 201.981 142.725 201.667C141.85 201.523 141.033 201.751 140.33 202.288C139.973 202.562 139.66 202.886 139.389 203.245C139.142 203.572 138.886 203.928 138.741 204.316C138.736 204.304 138.732 204.291 138.726 204.279C138.708 204.238 138.688 204.198 138.669 204.158C138.63 204.077 138.591 203.998 138.55 203.918C138.465 203.753 138.367 203.591 138.247 203.449C138.137 203.317 138.019 203.19 137.886 203.081C137.769 202.985 137.629 202.905 137.473 202.918C137.422 202.922 137.417 202.988 137.463 203.004C137.603 203.053 137.687 203.181 137.765 203.299C137.855 203.435 137.939 203.575 138.033 203.708C138.125 203.838 138.221 203.966 138.313 204.097C138.362 204.165 138.409 204.235 138.453 204.307C138.474 204.34 138.494 204.375 138.515 204.408C138.54 204.448 138.576 204.469 138.606 204.504C138.649 204.557 138.711 204.529 138.741 204.482C138.747 204.481 138.753 204.487 138.759 204.482C139.065 204.246 139.282 203.922 139.537 203.634C139.824 203.31 140.123 202.991 140.473 202.733C141.137 202.242 141.951 202.008 142.771 202.17C144.485 202.507 145.574 204.029 146.487 205.388C146.494 205.398 146.503 205.399 146.512 205.405L146.511 205.405C146.485 205.451 146.545 205.488 146.581 205.457C147.522 204.636 148.42 203.708 149.717 203.519C151.118 203.314 152.445 203.986 153.604 204.69C154.181 205.04 154.745 205.407 155.277 205.822C155.753 206.193 156.206 206.603 156.717 206.925C158.894 208.297 161.279 207.234 161.875 206.979C163.061 206.472 164.166 205.832 165.276 205.178C166.403 204.514 167.596 203.857 168.916 203.705C170.093 203.568 171.408 203.943 172.152 204.914C172.557 205.442 173.082 206.427 172.011 208.669C172.002 208.69 172.027 208.714 172.042 208.699C172.593 208.137 174.373 204.528 170.904 203.371Z" fill="#3D3D3D"></path><path d="M194.524 171.238L169.012 167.163C169.012 167.163 181.2 143.027 188.518 136.027C195.741 129.118 199.26 136.196 198.196 146.871C197.016 158.706 194.524 171.238 194.524 171.238Z" fill="#616161"></path><path d="M193.693 166.488C192.978 166.318 192.245 166.211 191.527 166.054C190.828 165.9 190.122 165.79 189.416 165.68C187.976 165.455 186.533 165.256 185.089 165.058C182.244 164.668 179.4 164.235 176.546 163.923C174.923 163.745 173.307 163.499 171.681 163.348C171.632 163.343 171.625 163.423 171.672 163.434C174.499 164.098 177.383 164.586 180.249 165.053C183.086 165.516 185.936 165.954 188.795 166.267C189.595 166.354 190.398 166.456 191.202 166.495C192.025 166.536 192.855 166.612 193.678 166.625C193.757 166.626 193.769 166.505 193.693 166.488Z" fill="#3D3D3D"></path><path d="M180.295 213.932H247.873C247.873 213.932 219.795 144.231 205.517 134.051C201.231 130.995 194.405 130.656 189.8 136.793C186.026 141.823 175.55 161.851 175.071 169.054C174.615 176.274 180.246 183.37 180.246 183.37L180.295 213.932Z" fill="#949494"></path><path d="M202.688 166.701C202.858 166.654 203.027 166.633 203.197 166.598C203.354 166.568 203.579 166.56 203.761 166.636C204.144 166.769 204.427 167.167 204.43 167.587C204.424 167.864 204.56 168.113 204.794 168.27C204.915 168.348 205.042 168.392 205.214 168.412C205.384 168.446 205.553 168.467 205.722 168.515C205.553 168.562 205.384 168.583 205.214 168.618C205.048 168.649 204.828 168.645 204.647 168.563C204.267 168.419 204.004 168 204.011 167.595C204.014 167.333 203.863 167.078 203.625 166.933C203.5 166.858 203.376 166.823 203.197 166.803C203.028 166.769 202.858 166.748 202.688 166.701Z" fill="white"></path><path d="M176.846 166.701C177.016 166.654 177.185 166.633 177.354 166.598C177.512 166.568 177.737 166.56 177.919 166.636C178.303 166.769 178.585 167.167 178.589 167.587C178.583 167.864 178.719 168.113 178.953 168.27C179.074 168.348 179.2 168.392 179.372 168.412C179.542 168.446 179.711 168.467 179.881 168.515C179.711 168.562 179.541 168.583 179.372 168.618C179.206 168.649 178.986 168.645 178.805 168.563C178.426 168.419 178.163 168 178.169 167.595C178.172 167.333 178.021 167.078 177.783 166.933C177.657 166.858 177.534 166.823 177.354 166.803C177.185 166.769 177.015 166.748 176.846 166.701Z" fill="white"></path><path d="M212.073 200.269C212.243 200.222 212.413 200.202 212.582 200.167C212.739 200.136 212.964 200.128 213.147 200.204C213.53 200.338 213.813 200.735 213.816 201.156C213.81 201.433 213.946 201.682 214.18 201.839C214.301 201.917 214.427 201.961 214.599 201.98C214.769 202.015 214.939 202.036 215.108 202.083C214.938 202.131 214.769 202.152 214.599 202.186C214.433 202.218 214.214 202.213 214.032 202.132C213.653 201.988 213.39 201.569 213.397 201.164C213.399 200.902 213.248 200.646 213.01 200.501C212.885 200.427 212.761 200.392 212.582 200.372C212.412 200.337 212.243 200.317 212.073 200.269Z" fill="white"></path><path d="M223.754 168.515C223.924 168.467 224.094 168.447 224.263 168.412C224.42 168.381 224.645 168.373 224.827 168.45C225.21 168.583 225.493 168.98 225.497 169.401C225.49 169.678 225.626 169.927 225.861 170.084C225.982 170.162 226.108 170.206 226.28 170.225C226.45 170.26 226.619 170.281 226.788 170.328C226.619 170.376 226.45 170.397 226.28 170.431C226.114 170.463 225.894 170.458 225.713 170.377C225.334 170.233 225.07 169.814 225.077 169.409C225.08 169.147 224.929 168.891 224.691 168.746C224.565 168.672 224.442 168.637 224.262 168.617C224.094 168.582 223.924 168.562 223.754 168.515Z" fill="white"></path><path d="M193.891 151.442C194.06 151.395 194.229 151.374 194.399 151.34C194.556 151.309 194.782 151.301 194.964 151.377C195.347 151.51 195.629 151.908 195.633 152.328C195.627 152.605 195.763 152.854 195.997 153.012C196.118 153.09 196.244 153.133 196.416 153.153C196.586 153.188 196.755 153.208 196.925 153.256C196.755 153.303 196.585 153.324 196.416 153.359C196.25 153.39 196.03 153.386 195.849 153.305C195.47 153.161 195.207 152.741 195.213 152.336C195.216 152.074 195.065 151.819 194.827 151.674C194.702 151.599 194.578 151.565 194.399 151.544C194.23 151.51 194.06 151.489 193.891 151.442Z" fill="white"></path><path d="M212.273 151.057C212.442 151.01 212.611 150.989 212.781 150.955C212.939 150.924 213.164 150.916 213.346 150.992C213.729 151.126 214.012 151.523 214.015 151.944C214.009 152.22 214.145 152.47 214.379 152.627C214.5 152.705 214.626 152.748 214.798 152.768C214.968 152.803 215.137 152.823 215.307 152.871C215.137 152.919 214.968 152.939 214.798 152.974C214.632 153.005 214.412 153.001 214.231 152.92C213.852 152.776 213.589 152.356 213.595 151.952C213.598 151.689 213.447 151.434 213.209 151.289C213.084 151.215 212.96 151.179 212.781 151.16C212.611 151.125 212.442 151.104 212.273 151.057Z" fill="white"></path><path d="M200.373 133.409C200.543 133.362 200.713 133.341 200.882 133.306C201.039 133.276 201.264 133.268 201.447 133.344C201.83 133.477 202.113 133.875 202.116 134.295C202.11 134.572 202.246 134.821 202.48 134.978C202.601 135.056 202.728 135.1 202.899 135.12C203.069 135.154 203.238 135.175 203.408 135.223C203.238 135.27 203.069 135.291 202.899 135.326C202.733 135.357 202.514 135.353 202.332 135.271C201.953 135.127 201.69 134.708 201.697 134.303C201.699 134.041 201.548 133.786 201.31 133.641C201.185 133.566 201.062 133.531 200.882 133.511C200.713 133.477 200.543 133.456 200.373 133.409Z" fill="white"></path><path d="M189.379 180.746C189.548 180.699 189.717 180.678 189.887 180.644C190.045 180.613 190.27 180.605 190.452 180.681C190.835 180.814 191.117 181.212 191.121 181.633C191.115 181.909 191.251 182.159 191.485 182.316C191.606 182.394 191.732 182.437 191.904 182.457C192.074 182.492 192.243 182.512 192.413 182.56C192.243 182.608 192.073 182.628 191.904 182.663C191.738 182.694 191.518 182.69 191.337 182.609C190.958 182.465 190.695 182.045 190.701 181.641C190.704 181.378 190.553 181.123 190.315 180.978C190.19 180.904 190.066 180.868 189.887 180.849C189.717 180.814 189.548 180.793 189.379 180.746Z" fill="white"></path><path d="M209.425 211.504C209.594 211.456 209.763 211.436 209.933 211.401C210.09 211.37 210.316 211.362 210.498 211.439C210.881 211.571 211.163 211.969 211.167 212.39C211.161 212.667 211.297 212.916 211.531 213.073C211.652 213.151 211.778 213.195 211.95 213.214C212.12 213.249 212.289 213.27 212.459 213.317C212.289 213.365 212.119 213.385 211.95 213.42C211.784 213.452 211.564 213.447 211.383 213.366C211.004 213.222 210.741 212.803 210.747 212.398C210.75 212.136 210.599 211.88 210.361 211.735C210.235 211.661 210.112 211.626 209.932 211.606C209.763 211.571 209.594 211.551 209.425 211.504Z" fill="white"></path><path d="M199.554 194.977C199.724 194.929 199.893 194.909 200.063 194.874C200.22 194.844 200.445 194.836 200.627 194.912C201.01 195.045 201.293 195.443 201.297 195.863C201.29 196.14 201.427 196.389 201.661 196.547C201.782 196.624 201.908 196.668 202.08 196.688C202.25 196.722 202.419 196.743 202.589 196.791C202.419 196.838 202.25 196.859 202.08 196.894C201.914 196.925 201.694 196.921 201.513 196.839C201.134 196.696 200.87 196.276 200.877 195.871C200.88 195.609 200.729 195.354 200.491 195.209C200.365 195.134 200.242 195.1 200.062 195.079C199.893 195.045 199.724 195.024 199.554 194.977Z" fill="white"></path><path d="M181.296 197.98C181.465 197.933 181.634 197.912 181.804 197.877C181.961 197.846 182.187 197.838 182.369 197.915C182.752 198.047 183.034 198.445 183.038 198.866C183.032 199.143 183.168 199.392 183.402 199.549C183.523 199.627 183.649 199.671 183.821 199.69C183.991 199.725 184.161 199.746 184.33 199.793C184.16 199.841 183.991 199.861 183.821 199.896C183.655 199.928 183.435 199.923 183.254 199.842C182.875 199.698 182.612 199.279 182.618 198.874C182.621 198.612 182.47 198.356 182.232 198.211C182.107 198.137 181.983 198.102 181.804 198.082C181.635 198.047 181.465 198.027 181.296 197.98Z" fill="white"></path><path d="M207.959 181.151C208.129 181.103 208.298 181.083 208.467 181.049C208.625 181.018 208.85 181.01 209.032 181.086C209.415 181.219 209.698 181.617 209.701 182.037C209.695 182.314 209.831 182.563 210.065 182.721C210.186 182.799 210.313 182.842 210.485 182.862C210.654 182.897 210.824 182.917 210.993 182.965C210.823 183.012 210.654 183.033 210.485 183.068C210.318 183.099 210.099 183.095 209.917 183.014C209.538 182.87 209.275 182.45 209.282 182.045C209.285 181.783 209.133 181.528 208.895 181.383C208.77 181.308 208.647 181.274 208.467 181.253C208.298 181.218 208.129 181.198 207.959 181.151Z" fill="white"></path><path d="M231.309 203.779C231.479 203.732 231.648 203.712 231.818 203.677C231.975 203.646 232.2 203.638 232.382 203.714C232.765 203.847 233.048 204.245 233.051 204.666C233.045 204.943 233.181 205.192 233.415 205.349C233.536 205.427 233.663 205.471 233.835 205.49C234.005 205.525 234.174 205.546 234.343 205.593C234.174 205.641 234.005 205.661 233.835 205.696C233.669 205.728 233.449 205.723 233.268 205.642C232.889 205.498 232.625 205.079 232.632 204.674C232.635 204.412 232.484 204.156 232.246 204.011C232.12 203.937 231.997 203.901 231.817 203.882C231.648 203.847 231.479 203.827 231.309 203.779Z" fill="white"></path><path d="M222.04 189.966C222.21 189.919 222.38 189.898 222.549 189.863C222.706 189.833 222.931 189.825 223.113 189.901C223.496 190.034 223.779 190.432 223.782 190.852C223.776 191.129 223.912 191.378 224.146 191.536C224.267 191.613 224.394 191.657 224.566 191.677C224.736 191.711 224.905 191.732 225.074 191.78C224.905 191.827 224.736 191.848 224.566 191.883C224.4 191.914 224.18 191.91 223.999 191.828C223.619 191.685 223.356 191.265 223.363 190.86C223.366 190.598 223.215 190.343 222.977 190.198C222.851 190.123 222.728 190.088 222.548 190.068C222.379 190.034 222.21 190.013 222.04 189.966Z" fill="white"></path><path d="M241.743 210.098C241.912 210.05 242.082 210.03 242.251 209.996C242.409 209.965 242.634 209.957 242.816 210.033C243.199 210.166 243.481 210.564 243.485 210.984C243.479 211.261 243.615 211.51 243.849 211.668C243.97 211.746 244.096 211.789 244.268 211.809C244.438 211.844 244.607 211.864 244.777 211.912C244.607 211.959 244.438 211.98 244.268 212.015C244.102 212.046 243.882 212.042 243.701 211.961C243.322 211.817 243.059 211.397 243.065 210.992C243.068 210.73 242.917 210.475 242.679 210.33C242.554 210.255 242.43 210.221 242.251 210.2C242.081 210.166 241.912 210.145 241.743 210.098Z" fill="white"></path><path d="M195.464 160.977C195.378 161.13 195.272 161.265 195.177 161.409C195.087 161.542 194.934 161.706 194.751 161.782C194.387 161.959 193.905 161.878 193.605 161.582C193.413 161.382 193.141 161.302 192.865 161.357C192.724 161.388 192.604 161.446 192.468 161.553C192.324 161.648 192.189 161.754 192.036 161.84C192.122 161.687 192.227 161.552 192.323 161.408C192.418 161.268 192.576 161.116 192.762 161.045C193.132 160.879 193.615 160.989 193.896 161.281C194.08 161.468 194.367 161.542 194.638 161.476C194.779 161.44 194.891 161.377 195.032 161.265C195.177 161.169 195.311 161.063 195.464 160.977Z" fill="white"></path><path d="M188.683 149.638C188.597 149.791 188.491 149.926 188.396 150.069C188.306 150.203 188.152 150.367 187.97 150.442C187.606 150.619 187.125 150.538 186.824 150.243C186.633 150.043 186.36 149.963 186.084 150.017C185.943 150.048 185.823 150.106 185.687 150.214C185.543 150.309 185.408 150.414 185.255 150.501C185.341 150.347 185.446 150.213 185.542 150.068C185.637 149.929 185.795 149.777 185.981 149.706C186.351 149.54 186.834 149.65 187.115 149.941C187.299 150.128 187.586 150.202 187.857 150.137C187.998 150.101 188.11 150.038 188.251 149.926C188.396 149.829 188.53 149.724 188.683 149.638Z" fill="white"></path><path d="M222.901 180.719C222.815 180.873 222.709 181.007 222.614 181.151C222.525 181.284 222.371 181.449 222.189 181.524C221.824 181.7 221.342 181.619 221.042 181.325C220.851 181.125 220.579 181.045 220.302 181.099C220.161 181.13 220.041 181.188 219.905 181.295C219.761 181.391 219.627 181.496 219.473 181.582C219.559 181.429 219.665 181.294 219.76 181.15C219.855 181.01 220.014 180.858 220.199 180.788C220.569 180.621 221.052 180.732 221.333 181.023C221.517 181.21 221.804 181.284 222.075 181.218C222.216 181.182 222.328 181.12 222.469 181.007C222.614 180.911 222.748 180.805 222.901 180.719Z" fill="white"></path><path d="M205.779 143.962C205.693 144.116 205.587 144.25 205.492 144.394C205.403 144.528 205.249 144.692 205.067 144.767C204.702 144.944 204.22 144.863 203.92 144.568C203.729 144.368 203.457 144.288 203.18 144.342C203.039 144.373 202.919 144.431 202.783 144.539C202.639 144.634 202.505 144.739 202.351 144.826C202.437 144.672 202.543 144.538 202.638 144.393C202.733 144.253 202.891 144.102 203.077 144.031C203.447 143.865 203.93 143.975 204.211 144.266C204.395 144.453 204.682 144.527 204.953 144.462C205.094 144.426 205.206 144.363 205.347 144.25C205.492 144.154 205.626 144.049 205.779 143.962Z" fill="white"></path><path d="M193.918 135.587C193.831 135.741 193.726 135.875 193.63 136.019C193.541 136.152 193.387 136.316 193.204 136.392C192.84 136.569 192.358 136.487 192.058 136.193C191.867 135.993 191.594 135.913 191.318 135.967C191.177 135.998 191.057 136.056 190.921 136.163C190.777 136.259 190.642 136.364 190.489 136.45C190.575 136.297 190.68 136.162 190.776 136.018C190.871 135.878 191.029 135.726 191.215 135.655C191.585 135.489 192.067 135.599 192.349 135.891C192.533 136.078 192.819 136.152 193.091 136.086C193.232 136.05 193.344 135.988 193.485 135.875C193.63 135.779 193.764 135.673 193.918 135.587Z" fill="white"></path><path d="M205.112 154.628C205.159 154.797 205.18 154.966 205.215 155.136C205.246 155.294 205.254 155.519 205.177 155.701C205.044 156.084 204.646 156.366 204.226 156.37C203.949 156.364 203.7 156.5 203.543 156.734C203.465 156.855 203.421 156.981 203.402 157.153C203.367 157.323 203.346 157.493 203.299 157.662C203.251 157.492 203.23 157.323 203.196 157.153C203.164 156.987 203.169 156.767 203.25 156.586C203.394 156.207 203.813 155.944 204.218 155.95C204.48 155.953 204.736 155.803 204.881 155.565C204.955 155.439 204.99 155.316 205.01 155.136C205.045 154.967 205.065 154.797 205.112 154.628Z" fill="white"></path><path d="M201.072 184.458C201.119 184.628 201.139 184.798 201.174 184.967C201.205 185.124 201.213 185.349 201.137 185.531C201.003 185.914 200.606 186.197 200.185 186.201C199.909 186.194 199.659 186.331 199.502 186.565C199.424 186.686 199.38 186.812 199.361 186.984C199.326 187.154 199.305 187.323 199.258 187.493C199.21 187.323 199.19 187.153 199.155 186.984C199.123 186.818 199.128 186.598 199.209 186.417C199.353 186.038 199.772 185.774 200.177 185.781C200.439 185.784 200.695 185.633 200.84 185.395C200.914 185.269 200.949 185.146 200.969 184.966C201.004 184.798 201.024 184.628 201.072 184.458Z" fill="white"></path><path d="M240.249 198.276C240.296 198.446 240.316 198.616 240.351 198.785C240.382 198.942 240.39 199.167 240.314 199.35C240.181 199.733 239.783 200.016 239.362 200.019C239.086 200.013 238.836 200.149 238.679 200.383C238.601 200.504 238.557 200.631 238.538 200.803C238.503 200.972 238.482 201.141 238.435 201.311C238.387 201.141 238.366 200.972 238.332 200.803C238.3 200.636 238.305 200.417 238.386 200.235C238.53 199.856 238.949 199.593 239.354 199.6C239.616 199.602 239.872 199.451 240.017 199.213C240.091 199.088 240.126 198.965 240.146 198.785C240.181 198.616 240.201 198.446 240.249 198.276Z" fill="white"></path><path d="M222.095 158.759C222.142 158.928 222.162 159.098 222.197 159.267C222.228 159.425 222.236 159.65 222.16 159.832C222.027 160.215 221.629 160.498 221.208 160.501C220.931 160.495 220.682 160.631 220.525 160.865C220.447 160.986 220.403 161.112 220.384 161.284C220.349 161.454 220.328 161.623 220.281 161.793C220.233 161.623 220.213 161.454 220.178 161.284C220.146 161.118 220.151 160.899 220.232 160.717C220.376 160.338 220.795 160.075 221.2 160.082C221.462 160.084 221.718 159.933 221.863 159.695C221.937 159.57 221.972 159.446 221.992 159.267C222.027 159.098 222.047 158.928 222.095 158.759Z" fill="white"></path><path d="M222.095 206.655C222.142 206.824 222.162 206.993 222.197 207.163C222.228 207.32 222.236 207.545 222.16 207.727C222.027 208.111 221.629 208.393 221.208 208.397C220.931 208.391 220.682 208.527 220.525 208.761C220.447 208.882 220.403 209.008 220.384 209.18C220.349 209.35 220.328 209.52 220.281 209.689C220.233 209.519 220.212 209.35 220.178 209.18C220.146 209.014 220.151 208.794 220.232 208.613C220.376 208.234 220.795 207.971 221.2 207.977C221.462 207.98 221.718 207.829 221.863 207.591C221.937 207.465 221.972 207.342 221.992 207.162C222.027 206.994 222.047 206.824 222.095 206.655Z" fill="white"></path><path d="M231.309 179.229C231.357 179.398 231.377 179.567 231.412 179.737C231.443 179.894 231.451 180.119 231.374 180.301C231.242 180.685 230.844 180.967 230.423 180.971C230.146 180.965 229.897 181.101 229.74 181.335C229.662 181.456 229.618 181.582 229.599 181.754C229.564 181.924 229.543 182.093 229.496 182.263C229.448 182.093 229.428 181.924 229.393 181.754C229.361 181.588 229.366 181.368 229.447 181.187C229.591 180.808 230.01 180.545 230.415 180.551C230.677 180.554 230.933 180.403 231.078 180.165C231.152 180.039 231.187 179.916 231.207 179.736C231.242 179.568 231.262 179.398 231.309 179.229Z" fill="white"></path><path d="M184.627 185.526C184.674 185.696 184.695 185.865 184.73 186.034C184.76 186.192 184.768 186.417 184.692 186.599C184.559 186.982 184.161 187.265 183.741 187.268C183.464 187.262 183.215 187.398 183.057 187.632C182.98 187.753 182.936 187.88 182.916 188.051C182.882 188.221 182.861 188.391 182.813 188.56C182.766 188.39 182.745 188.221 182.71 188.051C182.679 187.885 182.683 187.666 182.764 187.484C182.908 187.105 183.328 186.842 183.733 186.849C183.995 186.851 184.25 186.7 184.395 186.462C184.47 186.337 184.504 186.214 184.525 186.034C184.559 185.865 184.58 185.696 184.627 185.526Z" fill="white"></path><path d="M185.534 158.759C185.581 158.928 185.602 159.098 185.637 159.267C185.668 159.425 185.675 159.65 185.599 159.832C185.467 160.215 185.068 160.498 184.648 160.501C184.371 160.495 184.122 160.631 183.965 160.865C183.887 160.986 183.843 161.112 183.823 161.284C183.789 161.454 183.768 161.623 183.72 161.793C183.673 161.623 183.653 161.454 183.617 161.284C183.586 161.118 183.591 160.899 183.672 160.717C183.816 160.338 184.235 160.075 184.64 160.082C184.902 160.084 185.157 159.934 185.302 159.695C185.377 159.57 185.412 159.446 185.432 159.267C185.467 159.098 185.487 158.928 185.534 158.759Z" fill="white"></path><path d="M195.298 141.359C195.345 141.529 195.366 141.698 195.401 141.868C195.432 142.025 195.44 142.25 195.363 142.432C195.231 142.815 194.833 143.098 194.412 143.101C194.135 143.095 193.886 143.231 193.729 143.465C193.651 143.586 193.607 143.713 193.588 143.885C193.553 144.054 193.532 144.224 193.485 144.393C193.437 144.224 193.416 144.054 193.382 143.885C193.35 143.718 193.355 143.499 193.436 143.317C193.58 142.938 193.999 142.675 194.404 142.682C194.666 142.685 194.922 142.533 195.067 142.295C195.141 142.17 195.176 142.047 195.196 141.867C195.231 141.698 195.251 141.529 195.298 141.359Z" fill="white"></path><path d="M192.677 168.26C192.725 168.43 192.745 168.599 192.78 168.769C192.81 168.926 192.818 169.151 192.742 169.333C192.609 169.717 192.211 169.999 191.791 170.003C191.514 169.996 191.265 170.133 191.107 170.367C191.03 170.488 190.986 170.614 190.966 170.786C190.932 170.956 190.911 171.125 190.863 171.295C190.816 171.125 190.795 170.955 190.76 170.786C190.729 170.62 190.733 170.4 190.815 170.219C190.958 169.84 191.378 169.576 191.783 169.583C192.045 169.586 192.3 169.435 192.445 169.197C192.52 169.071 192.555 168.948 192.575 168.768C192.609 168.599 192.63 168.43 192.677 168.26Z" fill="white"></path><path d="M216.214 171.876C216.261 172.046 216.282 172.215 216.316 172.385C216.347 172.542 216.355 172.767 216.279 172.949C216.146 173.332 215.748 173.615 215.327 173.618C215.051 173.612 214.802 173.748 214.644 173.982C214.566 174.103 214.523 174.23 214.503 174.402C214.468 174.572 214.448 174.741 214.4 174.91C214.353 174.741 214.332 174.572 214.297 174.402C214.266 174.236 214.27 174.016 214.351 173.835C214.495 173.455 214.915 173.192 215.32 173.199C215.582 173.202 215.837 173.051 215.982 172.813C216.057 172.687 216.091 172.564 216.111 172.384C216.146 172.215 216.167 172.045 216.214 171.876Z" fill="white"></path><path d="M194.46 202.084C194.508 202.253 194.528 202.423 194.563 202.592C194.594 202.75 194.601 202.975 194.525 203.157C194.392 203.54 193.994 203.823 193.574 203.826C193.297 203.82 193.048 203.956 192.891 204.19C192.813 204.311 192.769 204.437 192.75 204.609C192.715 204.779 192.694 204.948 192.646 205.118C192.599 204.948 192.579 204.779 192.543 204.609C192.512 204.443 192.517 204.223 192.598 204.042C192.742 203.663 193.161 203.4 193.566 203.406C193.828 203.409 194.083 203.258 194.228 203.02C194.303 202.895 194.338 202.771 194.358 202.592C194.393 202.423 194.413 202.253 194.46 202.084Z" fill="white"></path><path d="M212.181 163.337C212.267 163.184 212.373 163.049 212.468 162.905C212.558 162.772 212.712 162.608 212.894 162.532C213.258 162.356 213.74 162.436 214.04 162.731C214.232 162.931 214.504 163.011 214.78 162.957C214.921 162.927 215.041 162.868 215.177 162.761C215.321 162.665 215.456 162.56 215.609 162.474C215.523 162.627 215.418 162.762 215.322 162.906C215.227 163.046 215.069 163.198 214.883 163.268C214.513 163.435 214.031 163.324 213.749 163.033C213.565 162.846 213.278 162.772 213.007 162.838C212.866 162.874 212.754 162.936 212.613 163.049C212.468 163.145 212.334 163.251 212.181 163.337Z" fill="white"></path><path d="M198.45 175.773C198.536 175.62 198.642 175.486 198.737 175.341C198.827 175.208 198.981 175.044 199.163 174.968C199.528 174.792 200.009 174.872 200.309 175.167C200.501 175.367 200.773 175.447 201.05 175.393C201.19 175.363 201.311 175.304 201.446 175.197C201.591 175.101 201.725 174.996 201.879 174.91C201.792 175.063 201.687 175.198 201.592 175.342C201.497 175.482 201.338 175.634 201.152 175.704C200.783 175.871 200.3 175.76 200.018 175.469C199.835 175.282 199.547 175.208 199.277 175.274C199.136 175.31 199.024 175.372 198.883 175.485C198.738 175.582 198.604 175.687 198.45 175.773Z" fill="white"></path><path d="M189.149 194.095C189.235 193.941 189.341 193.807 189.436 193.663C189.526 193.529 189.68 193.365 189.862 193.29C190.226 193.113 190.708 193.194 191.008 193.489C191.199 193.689 191.472 193.769 191.748 193.715C191.889 193.684 192.009 193.626 192.145 193.518C192.289 193.423 192.424 193.318 192.577 193.231C192.491 193.385 192.385 193.519 192.29 193.664C192.195 193.804 192.037 193.955 191.851 194.026C191.481 194.192 190.998 194.082 190.717 193.791C190.533 193.604 190.246 193.53 189.975 193.595C189.834 193.631 189.722 193.694 189.581 193.806C189.437 193.903 189.302 194.009 189.149 194.095Z" fill="white"></path><path d="M193.169 213.133C193.256 212.979 193.362 212.845 193.457 212.701C193.546 212.568 193.7 212.403 193.882 212.328C194.247 212.152 194.728 212.232 195.029 212.527C195.22 212.727 195.492 212.807 195.769 212.753C195.91 212.722 196.03 212.664 196.165 212.556C196.31 212.461 196.444 212.356 196.598 212.27C196.512 212.423 196.406 212.558 196.311 212.702C196.216 212.842 196.057 212.994 195.871 213.064C195.502 213.231 195.019 213.12 194.737 212.829C194.554 212.642 194.267 212.568 193.996 212.634C193.855 212.67 193.743 212.732 193.602 212.845C193.457 212.941 193.323 213.046 193.169 213.133Z" fill="white"></path><path d="M211.168 192.212C211.255 192.058 211.361 191.924 211.456 191.779C211.545 191.646 211.699 191.481 211.881 191.406C212.246 191.229 212.728 191.311 213.028 191.606C213.219 191.806 213.491 191.886 213.768 191.831C213.909 191.801 214.029 191.742 214.164 191.635C214.309 191.54 214.443 191.434 214.597 191.348C214.511 191.502 214.405 191.636 214.31 191.781C214.215 191.921 214.056 192.072 213.87 192.143C213.501 192.309 213.018 192.199 212.736 191.908C212.553 191.721 212.266 191.647 211.995 191.712C211.854 191.748 211.742 191.811 211.601 191.923C211.456 192.02 211.322 192.125 211.168 192.212Z" fill="white"></path><path d="M223.557 199.794C223.643 199.641 223.749 199.506 223.844 199.362C223.934 199.228 224.087 199.064 224.27 198.989C224.635 198.812 225.116 198.893 225.416 199.188C225.608 199.388 225.88 199.468 226.157 199.414C226.297 199.383 226.418 199.325 226.553 199.217C226.698 199.122 226.832 199.017 226.985 198.93C226.899 199.084 226.794 199.218 226.699 199.363C226.604 199.503 226.445 199.655 226.259 199.725C225.89 199.891 225.407 199.781 225.125 199.49C224.941 199.303 224.655 199.229 224.384 199.294C224.243 199.33 224.131 199.393 223.989 199.506C223.845 199.602 223.711 199.708 223.557 199.794Z" fill="white"></path><path d="M202.718 205.55C202.804 205.396 202.91 205.262 203.005 205.118C203.095 204.985 203.248 204.82 203.431 204.745C203.795 204.569 204.277 204.65 204.577 204.945C204.769 205.145 205.041 205.225 205.318 205.171C205.458 205.14 205.579 205.082 205.714 204.974C205.859 204.879 205.993 204.774 206.146 204.687C206.06 204.841 205.955 204.975 205.86 205.12C205.764 205.26 205.606 205.411 205.42 205.482C205.05 205.648 204.568 205.538 204.286 205.247C204.102 205.06 203.815 204.986 203.545 205.051C203.403 205.087 203.291 205.15 203.15 205.262C203.006 205.358 202.871 205.463 202.718 205.55Z" fill="white"></path><path d="M229.595 213.133C229.681 212.979 229.787 212.845 229.882 212.701C229.972 212.567 230.126 212.403 230.308 212.328C230.673 212.151 231.154 212.233 231.454 212.527C231.645 212.727 231.918 212.807 232.195 212.753C232.335 212.722 232.456 212.664 232.591 212.556C232.736 212.461 232.87 212.356 233.024 212.27C232.937 212.423 232.832 212.557 232.737 212.702C232.642 212.841 232.483 212.994 232.297 213.064C231.928 213.231 231.445 213.12 231.163 212.829C230.98 212.642 230.693 212.568 230.422 212.634C230.281 212.669 230.169 212.732 230.028 212.845C229.882 212.94 229.749 213.046 229.595 213.133Z" fill="white"></path><path d="M232.629 192.643C232.715 192.489 232.821 192.355 232.916 192.211C233.006 192.078 233.16 191.914 233.342 191.838C233.707 191.661 234.188 191.743 234.488 192.037C234.679 192.237 234.952 192.317 235.229 192.263C235.369 192.232 235.49 192.174 235.625 192.067C235.77 191.971 235.904 191.866 236.057 191.78C235.971 191.933 235.866 192.068 235.771 192.212C235.676 192.352 235.517 192.504 235.331 192.574C234.962 192.741 234.479 192.63 234.197 192.339C234.013 192.152 233.727 192.078 233.456 192.144C233.315 192.18 233.203 192.242 233.061 192.355C232.917 192.451 232.783 192.557 232.629 192.643Z" fill="white"></path><path d="M183.541 208.172C183.627 208.019 183.733 207.884 183.828 207.74C183.918 207.607 184.071 207.443 184.254 207.367C184.618 207.191 185.1 207.272 185.4 207.567C185.591 207.767 185.864 207.847 186.14 207.793C186.281 207.762 186.401 207.703 186.537 207.596C186.681 207.501 186.816 207.395 186.969 207.309C186.883 207.463 186.778 207.597 186.682 207.742C186.587 207.882 186.429 208.033 186.243 208.104C185.873 208.27 185.39 208.16 185.109 207.869C184.925 207.682 184.638 207.608 184.367 207.673C184.226 207.709 184.114 207.772 183.973 207.884C183.829 207.98 183.694 208.085 183.541 208.172Z" fill="white"></path><path d="M182.006 176.205C182.092 176.052 182.198 175.917 182.293 175.773C182.383 175.64 182.536 175.475 182.719 175.4C183.083 175.223 183.565 175.305 183.865 175.6C184.057 175.8 184.329 175.88 184.605 175.825C184.746 175.795 184.866 175.736 185.002 175.629C185.146 175.534 185.281 175.428 185.434 175.342C185.348 175.496 185.243 175.63 185.147 175.775C185.052 175.915 184.894 176.066 184.708 176.137C184.338 176.303 183.856 176.193 183.574 175.902C183.39 175.715 183.103 175.641 182.832 175.706C182.691 175.742 182.579 175.805 182.438 175.917C182.294 176.013 182.159 176.119 182.006 176.205Z" fill="white"></path><path d="M200.274 133.55C200.066 134.595 195.339 141.491 190.592 141.426C189.046 141.402 188.8 132.957 188.8 132.957L188.638 132.338L186.396 123.669L196.437 116.745L197.891 115.824C197.891 115.824 198.349 118.237 198.887 121.246C198.913 121.386 198.939 121.525 198.965 121.675C198.999 121.844 199.035 122.004 199.06 122.163C199.147 122.611 199.232 123.07 199.309 123.528C199.368 123.876 199.428 124.215 199.478 124.584C199.536 124.952 199.586 125.311 199.645 125.679C200.146 129.323 200.356 133.106 200.274 133.55Z" fill="#FFF0CD"></path><path d="M198.887 121.246C196.616 128.281 191.157 131.299 188.638 132.338L186.396 123.669L196.437 116.745L197.891 115.824C197.891 115.824 198.349 118.237 198.887 121.246Z" fill="#3D3D3D"></path><path d="M174.09 110.796C173.675 126.507 183.038 128.53 186.426 128.616C189.501 128.693 199.983 128.568 202.02 112.984C204.056 97.3995 196.882 92.2403 189.857 91.6898C182.833 91.1399 174.504 95.0851 174.09 110.796Z" fill="#FFF0CD"></path><path d="M176.474 106.041C176.84 105.982 177.169 105.867 177.525 105.771C177.927 105.663 178.259 105.618 178.545 105.291C178.698 105.116 178.671 104.774 178.514 104.61C178.149 104.226 177.624 104.235 177.134 104.345C176.603 104.465 176.224 104.693 175.888 105.121C175.564 105.535 175.991 106.118 176.474 106.041Z" fill="#3D3D3D"></path><path d="M186.976 108.337C186.606 108.31 186.269 108.224 185.906 108.159C185.495 108.087 185.161 108.071 184.848 107.77C184.68 107.609 184.677 107.266 184.819 107.088C185.149 106.673 185.673 106.638 186.17 106.705C186.71 106.778 187.107 106.973 187.479 107.369C187.839 107.753 187.465 108.372 186.976 108.337Z" fill="#3D3D3D"></path><path d="M178.792 111.155C178.78 111.115 178.711 111.211 178.716 111.255C178.821 112.32 178.763 113.558 177.821 113.977C177.791 113.99 177.798 114.043 177.833 114.036C179.001 113.791 179.062 112.147 178.792 111.155Z" fill="#3D3D3D"></path><path d="M177.763 110.104C176.037 110.089 176.134 113.542 177.732 113.556C179.306 113.57 179.21 110.117 177.763 110.104Z" fill="#3D3D3D"></path><path d="M177.049 110.351C176.781 110.541 176.521 110.882 176.195 110.912C175.818 110.947 175.528 110.582 175.277 110.23C175.251 110.194 175.224 110.224 175.224 110.27C175.224 110.93 175.462 111.611 176.099 111.721C176.681 111.82 177.09 111.242 177.229 110.58C177.255 110.457 177.157 110.274 177.049 110.351Z" fill="#3D3D3D"></path><path d="M185.82 120.299C185.554 120.541 185.286 120.877 184.895 120.896C184.521 120.914 184.089 120.73 183.752 120.585C183.719 120.571 183.683 120.606 183.704 120.639C183.967 121.06 184.544 121.339 185.044 121.269C185.533 121.202 185.787 120.79 185.921 120.351C185.94 120.289 185.859 120.264 185.82 120.299Z" fill="#3D3D3D"></path><path d="M180.468 116.005C180.468 116.005 180.34 117.606 180.383 118.356C180.388 118.426 182.51 118.122 184.749 118.737C185.085 118.829 185.065 118.552 184.683 118.351C183.917 117.949 182.94 117.558 180.99 117.667C180.925 117.463 181.233 115.205 181.114 115.203C180.701 115.192 179.911 115.517 179.434 115.686C179.604 112.343 180.308 109.054 180.428 105.723C180.43 105.604 180.258 105.578 180.229 105.686C179.247 109.081 178.967 112.924 178.703 116.372C178.666 116.801 180.176 116.149 180.468 116.005Z" fill="#3D3D3D"></path><path d="M187.944 111.211C187.639 111.077 187.311 111.025 186.979 110.984C186.646 110.958 186.304 110.977 185.963 111.051C185.625 111.137 185.283 111.271 184.98 111.491C184.677 111.713 184.424 112.013 184.244 112.351L183.918 112.963L184.593 112.889C185.049 112.838 185.553 112.829 186.028 112.881C186.505 112.941 186.978 113.057 187.413 113.373C187.174 112.876 186.672 112.523 186.151 112.349C185.622 112.171 185.085 112.111 184.515 112.161L184.864 112.699C185.141 112.219 185.576 111.864 186.129 111.644C186.677 111.428 187.293 111.288 187.944 111.211Z" fill="#3D3D3D"></path><path d="M185.999 113.992C185.492 113.817 185.003 113.734 184.546 113.429C184.441 113.36 184.033 113.052 184.057 112.964C184.094 112.725 184.21 112.456 184.324 112.21C184.162 112.433 183.98 112.64 183.905 112.943C183.941 113.198 184.128 113.463 184.428 113.638C184.912 113.92 185.533 114.015 185.999 113.992Z" fill="#3D3D3D"></path><path d="M182.279 118.246C182.279 118.246 183.254 119.642 184.375 119.814C185.664 120.013 185.816 118.853 184.393 118.194C183.647 117.849 182.279 118.246 182.279 118.246Z" fill="#3D3D3D"></path><path d="M184.371 119.811C183.891 119.743 183.439 119.449 183.077 119.125C183.342 118.724 183.959 118.283 185.341 119.027C185.547 119.527 185.184 119.939 184.371 119.811Z" fill="#FC820A"></path><path d="M201.909 113.359C199.321 113.686 198.46 108.269 198.46 108.269C198.46 108.269 193.183 108.541 191.073 101.036C191.073 101.036 191.359 104.563 193.714 107.198C193.714 107.198 184.36 106.664 180.064 99.0656C180.064 99.0656 181.819 102.956 183.354 104.297C183.354 104.297 179.397 103.397 177.34 100.32C177.34 100.32 175.929 104.894 174.735 106.197C174.735 106.197 174.328 89.8939 189.498 90.8935C189.498 90.8935 198.974 91.0621 202.73 98.374C206.484 105.686 201.909 113.359 201.909 113.359Z" fill="#3D3D3D"></path><path d="M199.49 114.124C199.49 114.124 202.619 109.022 204.915 110.109C207.211 111.196 205.063 118.449 202.513 119.577C199.963 120.705 198.873 118.365 198.873 118.365L199.49 114.124Z" fill="#FFF0CD"></path><path d="M204.248 112.173C204.29 112.167 204.301 112.225 204.266 112.242C202.481 113.093 201.621 114.847 201.052 116.646C201.555 115.937 202.273 115.521 203.219 116.114C203.269 116.145 203.227 116.222 203.175 116.214C202.416 116.099 201.883 116.261 201.414 116.892C201.081 117.338 200.868 117.89 200.641 118.397C200.565 118.565 200.264 118.496 200.315 118.304C200.319 118.29 200.324 118.275 200.328 118.261C200.142 115.93 201.758 112.558 204.248 112.173Z" fill="#3D3D3D"></path><path d="M201.022 118.757C201.043 119.161 201.388 119.471 201.792 119.45C202.196 119.428 202.506 119.083 202.485 118.68C202.463 118.276 202.119 117.966 201.715 117.987C201.31 118.009 201.001 118.353 201.022 118.757Z" fill="white"></path><path d="M202.797 117.542C202.811 117.8 203.031 117.999 203.29 117.985C203.549 117.971 203.747 117.75 203.733 117.492C203.719 117.233 203.499 117.035 203.24 117.048C202.981 117.062 202.783 117.283 202.797 117.542Z" fill="white"></path><path d="M151.824 148.13L143.693 150.018L149.54 175.197L157.671 173.309L151.824 148.13Z" fill="#F3F4F6"></path><path d="M132.014 81.2717C113.032 85.6806 101.214 104.649 105.624 123.638C110.033 142.621 129.002 154.438 147.985 150.03C166.972 145.619 178.785 126.652 174.376 107.669C169.966 88.6805 151.002 76.8611 132.014 81.2717ZM146.303 142.791C131.319 146.271 116.343 136.941 112.862 121.957C109.381 106.967 118.711 91.9912 133.696 88.5108C148.686 85.0293 163.656 94.3611 167.138 109.351C170.618 124.335 161.293 139.309 146.303 142.791Z" fill="#8A8A8A"></path><path d="M163.176 203.043L157.717 204.311C155.828 204.749 153.942 203.575 153.504 201.686L146.529 171.654C146.09 169.766 147.265 167.88 149.153 167.441L154.612 166.173C156.5 165.735 158.387 166.91 158.825 168.798L165.8 198.83C166.239 200.719 165.064 202.605 163.176 203.043Z" fill="#3D3D3D"></path><g opacity="0.3"><path d="M167.138 109.35C170.618 124.335 161.293 139.309 146.303 142.791C131.319 146.271 116.343 136.941 112.862 121.957C109.381 106.967 118.711 91.9911 133.696 88.5107C148.686 85.0287 163.656 94.3599 167.138 109.35Z" fill="white"></path><path d="M167.823 117.205C167.159 129.255 158.656 139.927 146.302 142.792C143.748 143.385 141.196 143.607 138.696 143.49L167.823 117.205Z" fill="#F3F4F6"></path><path d="M155.004 92.1777L115.112 128.178C114.135 126.244 113.378 124.158 112.863 121.956C112.269 119.425 112.052 116.89 112.167 114.412L141.618 87.8298C146.442 88.1104 151.04 89.642 155.004 92.1777Z" fill="#F3F4F6"></path><path d="M166.372 106.678L128.373 140.97C126.713 140.207 125.134 139.279 123.653 138.211L164.115 101.695C165.023 103.25 165.778 104.915 166.372 106.678Z" fill="#F3F4F6"></path><path d="M158.066 94.4484L117.057 131.463C116.864 131.184 116.676 130.905 116.495 130.621L157.286 93.8088C157.55 94.0127 157.814 94.2227 158.066 94.4484Z" fill="#F3F4F6"></path><path d="M132.34 88.8625L114.137 105.29C114.447 104.515 114.794 103.754 115.174 103.01L129.978 89.6493C130.745 89.3525 131.532 89.0899 132.34 88.8625Z" fill="#F3F4F6"></path></g><path d="M120.218 120.474C120.21 120.436 120.204 120.398 120.197 120.36C120.1 119.823 120.268 120.893 120.221 120.531C120.165 120.099 120.11 119.667 120.073 119.233C119.944 117.714 119.949 116.183 120.074 114.664C120.091 114.451 120.117 114.237 120.134 114.023C120.139 113.952 120.071 114.529 120.13 114.07C120.147 113.939 120.163 113.809 120.181 113.678C120.251 113.175 120.334 112.674 120.432 112.176C120.648 111.078 120.932 109.993 121.29 108.932C121.376 108.679 121.469 108.428 121.559 108.175C121.68 107.835 121.402 108.553 121.587 108.105C121.649 107.957 121.709 107.808 121.772 107.659C122.012 107.096 122.275 106.542 122.559 106C122.866 105.413 123.198 104.839 123.555 104.28C123.719 104.024 123.889 103.773 124.061 103.523C124.359 103.09 123.923 103.694 124.153 103.394C124.264 103.249 124.372 103.103 124.485 102.958C125.496 101.662 126.647 100.503 127.89 99.4296C127.915 99.4078 128.143 99.2202 127.953 99.3759C127.759 99.5344 128.057 99.2941 128.091 99.2678C128.282 99.1183 128.473 98.9693 128.667 98.8243C129.041 98.5448 129.423 98.2755 129.811 98.0162C130.632 97.4674 131.484 96.9662 132.355 96.5008C133.356 95.966 133.595 94.5229 133.025 93.6068C132.391 92.5898 131.134 92.4011 130.131 92.937C124.602 95.891 120.072 100.55 117.769 106.422C116.226 110.355 115.559 114.629 115.838 118.848C115.9 119.791 116.004 120.745 116.192 121.672C116.412 122.751 117.797 123.435 118.804 123.086C119.959 122.685 120.453 121.631 120.218 120.474Z" fill="white"></path><path d="M122.1 126.431C122.424 127.524 121.802 128.673 120.709 128.998C119.616 129.323 118.466 128.701 118.142 127.608C117.817 126.515 118.439 125.365 119.532 125.04C120.625 124.715 121.774 125.338 122.1 126.431Z" fill="white"></path><path d="M211.195 144.087C216.234 162.311 218.654 180.607 215.863 190.042C214.083 196.057 209.789 200.113 207.054 201.466C200.664 204.626 179.47 200.143 165.659 197.367C162.264 196.685 170.268 169.337 173.675 170.786C178.7 172.923 194.145 175.798 194.571 175.943C195.482 176.252 197.383 156.48 198.705 144.887C200.548 128.737 208.286 133.564 211.195 144.087Z" fill="#FFF0CD"></path><path d="M139.12 165.583C137.619 168.028 139.567 170.27 139.567 170.27C139.567 170.27 137.488 171.231 136.7 173.286C135.799 175.64 139.093 178.085 139.093 178.085C139.093 178.085 137.19 179.494 136.577 181.748C135.94 184.087 138.913 187.03 138.913 187.03C138.913 187.03 137.861 189.315 138.729 191.644C140.212 195.626 146.569 196.928 150.601 197.796C154.634 198.665 166.886 197.351 169.246 197.337L175.044 171.504C175.044 171.504 158.068 162.463 153.182 162.116C149.066 161.823 140.804 162.839 139.12 165.583Z" fill="#FFF0CD"></path><path d="M139.839 169.895C144.29 169.157 148.718 169.775 153.172 170.14C153.271 170.149 153.257 170.304 153.157 170.294C148.732 169.879 144.281 170.348 139.848 170.11C139.726 170.103 139.719 169.915 139.839 169.895Z" fill="#3D3D3D"></path><path d="M139.252 177.766C140.264 177.629 141.319 177.827 142.322 177.96C143.403 178.103 144.481 178.265 145.556 178.444C147.71 178.802 149.854 179.209 151.986 179.679C152.08 179.7 152.072 179.849 151.972 179.833C149.825 179.48 147.674 179.159 145.514 178.897C144.434 178.765 143.352 178.643 142.27 178.528C141.263 178.421 140.192 178.392 139.227 178.063C139.083 178.014 139.1 177.787 139.252 177.766Z" fill="#3D3D3D"></path><path d="M139.005 187.042C139.88 186.888 140.898 187.202 141.76 187.364C142.737 187.548 143.716 187.726 144.695 187.898C146.654 188.244 148.612 188.587 150.582 188.864C150.68 188.878 150.667 189.032 150.568 189.018C148.565 188.747 146.559 188.503 144.559 188.214C143.577 188.073 142.596 187.926 141.615 187.773C140.781 187.643 139.724 187.576 138.984 187.139C138.942 187.115 138.961 187.05 139.005 187.042Z" fill="#3D3D3D"></path><path d="M144.652 162.907C142.62 163.169 140.289 163.615 138.978 165.345C138.411 166.093 138.024 167.017 138.141 167.972C138.251 168.877 138.711 169.658 139.397 170.239C139.395 170.24 139.394 170.238 139.392 170.239C137.81 170.722 136.435 172.277 136.285 173.935C136.204 174.832 136.524 175.593 137.091 176.27C137.366 176.6 137.688 176.894 137.993 177.195C138.298 177.496 138.644 177.74 138.963 178.018C138.613 178.272 138.301 178.601 137.997 178.902C137.665 179.231 137.354 179.581 137.091 179.967C136.567 180.74 136.221 181.63 136.212 182.571C136.202 183.514 136.628 184.377 137.138 185.144C137.619 185.865 138.217 186.608 139.002 187.011C139.047 187.034 139.091 186.973 139.053 186.938C138.443 186.37 137.94 185.76 137.534 185.028C137.102 184.249 136.734 183.393 136.772 182.485C136.807 181.626 137.165 180.816 137.61 180.096C137.846 179.714 138.107 179.347 138.382 178.991C138.609 178.697 139.211 178.097 139.154 178.061C139.147 178.056 138.488 177.358 138.255 177.055C138.016 176.744 137.79 176.429 137.578 176.1C137.155 175.44 136.895 174.721 137.018 173.93C137.131 173.209 137.492 172.558 137.955 172.003C138.429 171.434 139.036 170.999 139.531 170.453C139.567 170.413 139.574 170.285 139.556 170.257C138.431 168.511 138.578 166.852 139.778 165.56C140.377 164.915 141.109 164.433 141.887 164.028C142.768 163.569 143.735 163.328 144.673 163.015C144.73 162.997 144.717 162.898 144.652 162.907Z" fill="#3D3D3D"></path><path d="M181.783 200.528C180.589 200.164 179.329 199.969 178.11 199.702C176.884 199.433 175.654 199.182 174.423 198.936C173.168 198.685 171.912 198.442 170.654 198.204C169.444 197.976 168.232 197.706 167.008 197.56C165.815 197.418 164.658 197.506 163.47 197.641C162.287 197.776 161.1 197.872 159.91 197.928C157.513 198.043 155.1 197.991 152.711 197.772C150.013 197.525 147.318 197.034 144.7 196.339C144.645 196.325 144.626 196.407 144.678 196.424C149.223 197.918 154.014 198.708 158.803 198.651C159.994 198.637 161.183 198.576 162.369 198.46C163.551 198.344 164.735 198.131 165.926 198.157C167.188 198.184 168.433 198.465 169.669 198.697C170.905 198.929 172.14 199.164 173.378 199.382C174.778 199.628 176.176 199.881 177.58 200.101C178.964 200.318 180.363 200.629 181.76 200.735C181.883 200.745 181.89 200.561 181.783 200.528Z" fill="#3D3D3D"></path><path d="M199.173 177.074C197.381 176.461 195.488 176.083 193.648 175.64C191.798 175.194 189.943 174.769 188.087 174.349C184.549 173.55 180.963 172.871 177.468 171.895C176.546 171.637 175.632 171.353 174.731 171.029C174.279 170.866 173.833 170.688 173.391 170.498C172.934 170.303 172.44 170.146 172.006 169.908C171.954 169.879 171.912 169.957 171.962 169.988C172.319 170.207 172.642 170.471 173.005 170.681C173.4 170.909 173.812 171.108 174.225 171.299C174.98 171.649 175.76 171.949 176.55 172.215C178.197 172.768 179.894 173.159 181.586 173.549C185.282 174.398 188.981 175.236 192.69 176.029C193.734 176.253 194.779 176.478 195.826 176.687C196.916 176.904 198.018 177.149 199.123 177.275C199.253 177.289 199.301 177.118 199.173 177.074Z" fill="#3D3D3D"></path><path d="M193.343 170.295L218.943 173.779C218.943 173.779 214.263 147.15 209.285 138.331C204.371 129.627 198.953 135.382 196.882 145.908C194.585 157.577 193.343 170.295 193.343 170.295Z" fill="#616161"></path><path d="M217.038 169.922C216.323 169.752 215.59 169.646 214.872 169.488C214.174 169.334 213.467 169.224 212.761 169.114C211.322 168.89 209.878 168.69 208.434 168.492C205.589 168.102 202.745 167.669 199.891 167.357C198.268 167.179 196.652 166.933 195.027 166.782C194.977 166.777 194.97 166.857 195.017 166.868C197.845 167.532 200.728 168.02 203.594 168.487C206.431 168.95 209.282 169.388 212.14 169.701C212.94 169.788 213.743 169.89 214.547 169.929C215.37 169.97 216.2 170.046 217.023 170.059C217.102 170.061 217.114 169.94 217.038 169.922Z" fill="#3D3D3D"></path><path d="M231.075 73.309C230.093 82.7002 221.679 89.521 212.288 88.5388C208.492 88.1417 205.118 86.5306 202.505 84.1249L193.951 85.3804L198.231 77.985C197.193 75.4583 196.755 72.646 197.058 69.7513C198.04 60.3601 206.454 53.5393 215.845 54.5216C225.236 55.5038 232.057 63.9178 231.075 73.309Z" fill="white"></path><path d="M231.075 73.3091C230.718 76.4311 229.577 79.4909 227.624 81.9773C227.175 82.6286 226.598 83.1729 226.074 83.7615C225.48 84.2789 224.925 84.8468 224.269 85.2892C223.018 86.2529 221.613 87.0078 220.144 87.5857C218.682 88.2012 217.109 88.4946 215.54 88.6833C214.749 88.7259 213.957 88.7981 213.165 88.7287C212.371 88.7108 211.58 88.6256 210.798 88.4823C207.669 87.9156 204.705 86.4506 202.338 84.3052L202.54 84.3674L193.995 85.68L193.375 85.7752L193.689 85.2287L197.944 77.8188L197.924 78.1111C195.851 73.2301 196.319 67.4179 198.978 62.8701C200.303 60.5926 202.151 58.6304 204.333 57.1671C206.514 55.6993 209.042 54.7792 211.631 54.4287C214.222 54.0848 216.889 54.3206 219.364 55.1432C221.835 55.9754 224.101 57.3748 225.958 59.187C229.733 62.7766 231.631 68.1604 231.075 73.3091ZM231.075 73.3091C231.595 68.156 229.66 62.8046 225.883 59.2643C224.008 57.4936 221.738 56.1518 219.289 55.374C216.835 54.6062 214.211 54.4231 211.683 54.8039C209.158 55.1914 206.712 56.1322 204.621 57.5938C202.535 59.0588 200.776 60.9745 199.505 63.1742C198.209 65.3694 197.538 67.8849 197.335 70.4094C197.174 72.9428 197.588 75.5065 198.538 77.8585L198.6 78.0114L198.518 78.1514L194.213 85.5322L193.906 85.0808L202.469 83.8819L202.587 83.8651L202.671 83.944C204.935 86.0687 207.799 87.5521 210.86 88.162C211.624 88.316 212.4 88.4128 213.18 88.4442C213.959 88.5265 214.739 88.4688 215.519 88.4408C217.068 88.2812 218.629 88.0197 220.086 87.4351C221.549 86.8868 222.965 86.1684 224.211 85.2119C224.866 84.7762 225.421 84.2156 226.017 83.7044C226.541 83.122 227.121 82.5838 227.572 81.9381C229.535 79.4741 230.697 76.4288 231.075 73.3091Z" fill="#3D3D3D"></path><path d="M205.707 79.5033C205.707 78.4824 206.416 77.7449 207.38 77.7449C208.401 77.7449 209.053 78.4824 209.053 79.5033C209.053 80.4956 208.401 81.2611 207.38 81.2611C206.387 81.2611 205.707 80.4956 205.707 79.5033ZM206.416 75.4478L206.019 61.8364H208.741L208.344 75.4478H206.416Z" fill="#FAB005"></path><path d="M212.229 79.5033C212.229 78.4824 212.938 77.7449 213.902 77.7449C214.923 77.7449 215.575 78.4824 215.575 79.5033C215.575 80.4956 214.923 81.2611 213.902 81.2611C212.91 81.2611 212.229 80.4956 212.229 79.5033ZM212.938 75.4478L212.541 61.8364H215.263L214.866 75.4478H212.938Z" fill="#FAB005"></path><path d="M218.752 79.5033C218.752 78.4824 219.461 77.7449 220.425 77.7449C221.446 77.7449 222.098 78.4824 222.098 79.5033C222.098 80.4956 221.446 81.2611 220.425 81.2611C219.433 81.2611 218.752 80.4956 218.752 79.5033ZM219.461 75.4478L219.064 61.8364H221.786L221.389 75.4478H219.461Z" fill="#FAB005"></path></svg>