<svg width="113" height="112" viewBox="0 0 113 112" fill="none" xmlns="http://www.w3.org/2000/svg" class="h-[107px] lg:h-[132px]"><path d="M42.7407 62.1906C49.697 74.0906 56.6532 85.9687 63.6095 97.8687L105.981 81.1562L102.241 64.5969C101.956 66.9375 101.672 69.2562 101.388 71.5969C101.716 73.7187 102.066 75.8187 102.394 77.9406L66.2126 91.3062C60.1095 81.3969 54.0063 71.4656 47.9032 61.5562C46.197 61.7531 44.4688 61.9719 42.7407 62.1906Z" fill="#FFC84A"></path><path d="M9.2063 52.8281C21.7407 49.0875 34.275 45.3469 46.8313 41.6063L103.663 52.8281C91.9594 57.7063 80.2782 62.5844 68.5751 67.4625C48.7782 62.6063 28.9813 57.7281 9.2063 52.8281Z" fill="#FAB005"></path><path d="M9.2063 52.8281L16.3375 90.7594C16.95 94.0187 19.5094 96.5344 22.7688 97.1031L64.0907 104.3C66.2782 104.672 68.5094 104.431 70.5438 103.556L93.9719 93.5812C97.1438 92.225 99.3532 89.2719 99.7688 85.8375L103.663 52.8062C91.8282 56.9844 79.9938 61.1625 68.1813 65.3406L9.2063 52.8281Z" fill="#FFF0CD"></path><path d="M7.17188 51.1875C7.47813 52.8719 7.78437 54.5563 8.1125 56.2406C27.8875 60.7688 47.6625 65.3187 67.4594 69.8469C79.9719 65.1656 92.5062 60.4844 105.019 55.8031V50.9688L67.4375 64.05C47.3563 59.7625 27.2531 55.475 7.17188 51.1875Z" fill="#FFC84A"></path><path d="M7.17188 51.1875L46.875 39.6375L104.997 50.9688C104.538 51.5813 104.1 52.2156 103.641 52.8281L46.8094 41.6063C34.3406 45.6094 21.85 49.5906 9.38125 53.5938C8.6375 52.8063 7.91563 51.9969 7.17188 51.1875Z" fill="#FFC84A"></path><path d="M22.5937 93.0125L22.375 93.0344C21.8937 93.1 21.4562 92.75 21.3906 92.2688L18.1312 65.2969C18.0656 64.8156 18.4156 64.3781 18.8968 64.3125L19.1156 64.2906C19.5968 64.225 20.0343 64.575 20.1 65.0563L23.3593 92.05C23.425 92.5313 23.075 92.9688 22.5937 93.0125ZM31.4968 94.8938L31.2781 94.9156C30.7968 94.9813 30.3593 94.6313 30.2937 94.15L27.0343 67.1563C26.9687 66.675 27.3187 66.2375 27.8 66.1719L28.0187 66.15C28.5 66.0844 28.9375 66.4344 29.0031 66.9156L32.2625 93.9094C32.3281 94.3906 31.9781 94.8281 31.4968 94.8938ZM40.9687 97.3L40.75 97.3219C40.2687 97.3875 39.8312 97.0375 39.7656 96.5563L36.5062 69.5625C36.4406 69.0813 36.7906 68.6438 37.2718 68.5781L37.4906 68.5563C37.9718 68.4906 38.4093 68.8406 38.475 69.3219L41.7343 96.3156C41.7781 96.8188 41.45 97.2563 40.9687 97.3ZM50.0906 98.2844L49.8718 98.3063C49.3906 98.3719 48.9531 98.0219 48.8875 97.5406L45.6281 70.5469C45.5625 70.0656 45.9125 69.6281 46.3937 69.5625L46.6125 69.5406C47.0937 69.475 47.5312 69.825 47.5968 70.3063L50.8562 97.3C50.9218 97.7813 50.5718 98.2406 50.0906 98.2844ZM60.525 101.369L60.3062 101.391C59.825 101.456 59.3875 101.106 59.3218 100.625L56.0625 73.6313C55.9968 73.15 56.3468 72.7125 56.8281 72.6469L57.0468 72.625C57.5281 72.5594 57.9656 72.9094 58.0312 73.3906L61.2906 100.384C61.3562 100.866 61.0062 101.303 60.525 101.369ZM75.4656 98.3719H75.2468C74.7656 98.3719 74.3718 97.9781 74.3718 97.4969L74.4593 70.3063C74.4593 69.825 74.8531 69.4313 75.3343 69.4313H75.5531C76.0343 69.4313 76.4281 69.825 76.4281 70.3063L76.3406 97.4969C76.3406 97.9781 75.9468 98.3719 75.4656 98.3719ZM84.5437 94.9813H84.325C83.8437 94.9813 83.45 94.5875 83.45 94.1063L83.5375 66.9156C83.5375 66.4344 83.9312 66.0406 84.4125 66.0406H84.6312C85.1125 66.0406 85.5062 66.4344 85.5062 66.9156L85.4187 94.1063C85.4187 94.5875 85.025 94.9813 84.5437 94.9813ZM92.8343 92.0719H92.6156C92.1343 92.0719 91.7406 91.6781 91.7406 91.1969L91.8281 64.0063C91.8281 63.525 92.2218 63.1313 92.7031 63.1313H92.9218C93.4031 63.1313 93.7968 63.525 93.7968 64.0063L93.7093 91.1969C93.7093 91.6781 93.3156 92.0719 92.8343 92.0719ZM67.4375 104.519C67.3718 104.519 67.3281 104.475 67.3281 104.409V64.05C67.3281 63.9844 67.3718 63.9406 67.4375 63.9406C67.5031 63.9406 67.5468 63.9844 67.5468 64.05V104.388C67.5468 104.453 67.5031 104.519 67.4375 104.519Z" fill="#FAB005"></path><path d="M41.6907 61.5781C48.9969 73.675 56.3032 85.7719 63.5876 97.8469L105.959 81.1344L102.219 64.575C101.934 66.9156 101.65 69.2344 101.366 71.575C101.694 73.6969 102.044 75.7969 102.372 77.9188L66.1907 91.2844C59.3657 80.7188 52.5626 70.175 45.7376 59.6094C44.4032 60.2656 43.0469 60.9219 41.6907 61.5781ZM38.8032 58.2094C27.9969 64.925 17.1688 71.6406 6.36255 78.3563C7.30317 80.15 8.26567 81.9438 9.2063 83.7156C20.4501 76.0156 31.6938 68.3375 42.9157 60.6375C41.5375 59.8281 40.1594 59.0188 38.8032 58.2094Z" fill="#FFC84A"></path><path d="M42.15 64.8375C44.675 64.8375 46.7219 62.7906 46.7219 60.2656C46.7219 57.7407 44.675 55.6938 42.15 55.6938C39.625 55.6938 37.5781 57.7407 37.5781 60.2656C37.5781 62.7906 39.625 64.8375 42.15 64.8375Z" fill="#FFC84A"></path><path d="M38.1032 58.625C38.147 58.45 37.9282 58.275 37.797 58.45C37.3814 58.9531 37.272 59.7188 37.272 60.3531C37.272 61.0313 37.4032 61.6875 37.7095 62.3C37.797 62.4969 38.1251 62.3656 38.0595 62.1469C37.3814 60.3094 37.9939 59.2156 38.1032 58.625ZM45.8251 61.425C45.5626 61.9281 45.5626 62.3 45.0814 63.0219C44.7532 63.5031 44.3157 63.9188 43.8345 64.2469C43.6157 64.4 43.8126 64.75 44.0532 64.6188C44.9282 64.1375 45.5845 63.3938 45.9564 62.4969C46.0876 62.1906 46.197 61.8844 46.1751 61.5344C46.1532 61.3375 45.9126 61.25 45.8251 61.425ZM36.0032 59.85C35.872 59.6094 35.5439 59.9156 35.2595 60.0906C35.0407 60.2438 34.8439 60.375 33.8157 61.0969C33.7282 61.1625 33.6845 61.25 33.7501 61.3594C33.7939 61.4469 33.9251 61.4906 34.0126 61.425C35.0626 60.725 35.2595 60.5938 35.4782 60.4406C35.697 60.3094 36.1345 60.0906 36.0032 59.85Z" fill="#FAB005"></path><path d="M48.1219 57.9031C47.5094 49.0656 47.3344 46.2438 47.0282 43.3344C47.0063 43.1375 46.7219 43.1375 46.7219 43.3344C46.8969 47.3594 47.2032 50.7938 47.6844 57.2469C47.7282 57.7938 47.6844 58.4063 47.8375 58.9313C47.8813 59.1063 48.1219 59.0625 48.1438 58.8875C48.1875 58.5594 48.1438 58.2313 48.1219 57.9031Z" fill="#E5E5FF"></path><path d="M93.2501 25.4188C91.4126 13.3875 77.0408 5.77501 63.5658 8.85938C60.1533 9.64688 54.6408 10.9156 50.747 15.9688C46.5033 21.4813 46.9845 27.8469 47.1595 30.0563C47.2908 31.8938 47.6408 36.5313 50.7251 40.6438C57.1345 49.2844 69.7126 47.9938 70.522 47.9063C69.8876 50.3781 68.8158 51.7781 67.9626 52.6094C66.497 54.0313 64.3533 54.9938 64.5501 55.475C64.5939 55.6063 64.7908 55.65 64.9001 55.65C71.2876 56.1969 77.5658 53.0031 80.7376 46.9875C89.7064 43.2906 94.5189 33.8406 93.2501 25.4188Z" fill="#3F3F99"></path><path d="M68.3345 35.0656C67.7439 32.9 68.7283 30.4281 71.2877 27.6938C73.0814 25.7688 75.2908 24.0406 74.9408 21.5906C74.6345 19.4469 72.622 18.0688 70.5002 18.55C68.422 19.0313 67.7877 21.0875 67.1752 23.7344C66.847 25.1125 65.097 25.3094 64.3095 24.2375C63.4127 22.9907 63.1064 21.4813 63.4783 19.8844C63.9377 17.85 65.4689 15.8594 67.3502 14.8313C68.5095 14.1969 69.8439 13.8688 71.222 13.8688C78.1345 13.8688 81.6345 21.5469 77.6752 26.8844C76.5377 28.4156 75.072 29.5531 73.6939 30.7344C72.1408 32.0688 71.3314 33.2938 70.8064 35.0656C70.4345 36.3125 68.6627 36.2906 68.3345 35.0656ZM67.2408 40.7094C66.9127 38.9375 68.6627 37.0781 70.7408 37.6031C72.1189 37.7563 73.1033 39.1563 72.8627 40.4469C72.8627 40.6656 72.8189 40.8625 72.7752 41.0813C72.7533 41.1688 72.7752 41.0813 72.5345 41.6938C72.1627 42.4157 71.4189 42.9188 70.7627 43.0719C68.9033 43.4875 67.3502 42.1532 67.2408 40.7094Z" fill="#F1F1FF"></path><path d="M92.9438 24.1719C92.8782 23.9531 92.5719 24.0406 92.6157 24.2594C93.9282 31.1281 91.675 38.0844 86.0969 42.5687C85.0469 43.4219 84.6313 43.5531 84.2594 44.0125C84.15 44.1656 84.2375 44.3844 84.4563 44.3406C85.1563 44.1875 85.7469 43.6187 86.2938 43.2031C92.1563 38.5437 94.65 30.9531 92.9438 24.1719ZM87.825 15.3125C87.1469 14.2187 85.9875 13.1906 84.6532 12.6219C84.5875 12.6 84.2594 12.4469 84.1938 12.4469C84.15 12.4469 84.0844 12.4687 84.0625 12.4687C83.9094 12.4469 83.8875 12.6656 83.9969 12.7312C84.0844 12.8844 84.3469 12.9281 84.4782 12.9937C86.7969 14.0437 87.5407 15.9031 87.8032 16.1437C87.9563 16.2969 88.175 16.1437 88.1532 15.9469C88.0875 15.7281 87.9344 15.5094 87.825 15.3125ZM50.7469 37.9312C50.1563 36.5094 49.3688 35.5469 48.6907 32.9C48.0125 30.2094 48.275 28.9406 48.1875 27.4531C48.1657 27.2344 47.8375 27.1687 47.7719 27.3875C47.5532 28.2625 47.575 29.2687 47.6407 30.1656C47.7719 32.0687 48.1875 33.9281 48.9313 35.6781C49.3031 36.5531 49.7188 37.4281 50.3531 38.1281C50.5281 38.3031 50.8344 38.15 50.7469 37.9312ZM101.934 8.5531C100.513 10.0187 99.2 11.5937 97.8657 13.1469C96.5313 14.6781 95.1532 16.1875 93.95 17.8062C93.7969 18.025 94.1469 18.2875 94.3219 18.0906C95.7657 16.6687 97.0563 15.0937 98.3688 13.5625C99.6813 12.0312 101.059 10.5219 102.306 8.92498C102.503 8.66248 102.175 8.2906 101.934 8.5531ZM103.291 24.7625C102.853 24.7625 102.438 24.85 102.022 24.9375C100.95 25.1562 99.1563 25.5719 98.1063 25.8562C97.6907 25.9656 97.8657 26.5562 98.2813 26.4906C99.1563 26.3375 100.031 26.1406 100.906 25.9656C101.738 25.7906 102.656 25.6375 103.444 25.2656C103.663 25.1344 103.531 24.7625 103.291 24.7625ZM48.5813 17.7406C47.9907 16.9312 47.5969 16.5812 44.425 13.3219C43.0032 11.8562 41.5594 10.4125 40.1157 8.94685C39.8532 8.68435 39.4594 9.0781 39.7219 9.3406C43.0469 12.8844 42.8938 12.7312 45.9563 15.925C46.6563 16.6687 47.3344 17.4344 48.1438 18.0687C48.3844 18.2437 48.8 18.0031 48.5813 17.7406ZM44.4688 24.2812C44.1625 24.0844 44.2063 24.0625 39.6344 22.9469C39.4157 22.8812 39.1969 22.8156 38.9563 22.8812C38.7594 22.9469 38.6719 23.2094 38.825 23.3625C39 23.5375 39.2188 23.5594 39.4375 23.625C41.1875 24.1062 40.8375 24.0187 42.8938 24.5437C43.3532 24.675 43.8344 24.8281 44.3157 24.8062C44.6 24.7844 44.7094 24.4344 44.4688 24.2812ZM43.8125 32.3312C42.4563 33.0531 41.0782 33.775 39.7438 34.5406C38.3875 35.2844 37.0094 35.9844 35.7407 36.8594C35.4782 37.0562 35.6969 37.4281 36.0032 37.2969C37.425 36.6844 38.7375 35.875 40.0938 35.1094C41.45 34.3656 42.7844 33.5781 44.1188 32.8125C44.4031 32.6375 44.1188 32.1562 43.8125 32.3312ZM100.863 40.4031C100.359 39.8562 98.8719 38.9375 98.2375 38.5656C97.3188 37.9969 96.4 37.4281 95.4375 36.9031C94.9782 36.6625 94.6282 37.2969 95.0438 37.5812C95.8969 38.1719 98.2813 39.6375 99.2 40.1406C99.6594 40.3812 100.141 40.6656 100.644 40.7969C100.863 40.8406 101.016 40.5562 100.863 40.4031Z" fill="#8D8DD3"></path></svg>