<svg width="21" height="22" viewBox="0 0 21 22" fill="none" xmlns="http://www.w3.org/2000/svg">
<path d="M10.4468 2.62117C13.1424 2.62117 13.4606 2.63068 14.5246 2.68064C15.5078 2.72584 16.0421 2.88998 16.3984 3.02795C16.8686 3.21113 17.2059 3.42998 17.5597 3.78444C17.9136 4.13889 18.1321 4.47431 18.3149 4.9477C18.4527 5.30453 18.6165 5.83978 18.6617 6.82463C18.7092 7.89037 18.721 8.21151 18.721 10.9092C18.721 13.6068 18.7115 13.9279 18.6617 14.9937C18.6165 15.9785 18.4527 16.5138 18.3149 16.8706C18.1321 17.3416 17.9136 17.6794 17.5597 18.0339C17.2059 18.3883 16.871 18.6072 16.3984 18.7904C16.0421 18.9283 15.5078 19.0925 14.5246 19.1377C13.4606 19.1852 13.1424 19.1971 10.4468 19.1971C7.75132 19.1971 7.43307 19.1876 6.36911 19.1377C5.3859 19.0925 4.85154 18.9283 4.4953 18.7904C4.02506 18.6072 3.68783 18.3883 3.33397 18.0339C2.98011 17.6794 2.76162 17.344 2.57875 16.8706C2.441 16.5138 2.27713 15.9785 2.232 14.9937C2.18451 13.9279 2.17263 13.6068 2.17263 10.9092C2.17263 8.21151 2.18213 7.89037 2.232 6.82463C2.27713 5.83978 2.441 5.30453 2.57875 4.9477C2.76162 4.47669 2.98011 4.13889 3.33397 3.78444C3.68783 3.42998 4.02269 3.21113 4.4953 3.02795C4.85154 2.88998 5.3859 2.72584 6.36911 2.68064C7.43307 2.63306 7.75132 2.62117 10.4468 2.62117ZM10.4468 0.801331C7.70619 0.801331 7.36182 0.813225 6.28599 0.863181C5.21252 0.913138 4.47867 1.08204 3.83507 1.3342C3.17247 1.5935 2.60962 1.93843 2.04676 2.49984C1.48628 3.06126 1.13954 3.62505 0.883053 4.29114C0.633687 4.93343 0.46269 5.6685 0.412817 6.74613C0.362944 7.82376 0.351074 8.1687 0.351074 10.9139C0.351074 13.6591 0.362944 14.0041 0.412817 15.0817C0.46269 16.1569 0.631312 16.892 0.883053 17.5367C1.14192 18.2004 1.48628 18.7642 2.04676 19.328C2.60724 19.8894 3.1701 20.2367 3.83507 20.4936C4.4763 20.7434 5.21015 20.9147 6.28599 20.9646C7.36182 21.0146 7.70619 21.0265 10.4468 21.0265C13.1875 21.0265 13.5319 21.0146 14.6077 20.9646C15.6811 20.9147 16.415 20.7458 17.0586 20.4936C17.7212 20.2343 18.2841 19.8894 18.8469 19.328C19.4074 18.7666 19.7541 18.2028 20.0106 17.5367C20.26 16.8944 20.431 16.1593 20.4809 15.0817C20.5307 14.0041 20.5426 13.6591 20.5426 10.9139C20.5426 8.1687 20.5307 7.82376 20.4809 6.74613C20.431 5.67088 20.2624 4.93581 20.0106 4.29114C19.7518 3.62743 19.4074 3.06364 18.8469 2.49984C18.2864 1.93843 17.7236 1.59112 17.0586 1.3342C16.4174 1.08442 15.6835 0.913138 14.6077 0.863181C13.5319 0.810846 13.1875 0.801331 10.4468 0.801331Z" fill="black"/>
<path d="M10.4467 5.71848C7.58494 5.71848 5.26465 8.04263 5.26465 10.9092C5.26465 13.7757 7.58494 16.0999 10.4467 16.0999C13.3085 16.0999 15.6288 13.7757 15.6288 10.9092C15.6288 8.04263 13.3085 5.71848 10.4467 5.71848ZM10.4467 14.28C8.58953 14.28 7.08146 12.7718 7.08146 10.9092C7.08146 9.04652 8.58716 7.53831 10.4467 7.53831C12.3039 7.53831 13.812 9.04652 13.812 10.9092C13.812 12.7718 12.3039 14.28 10.4467 14.28Z" fill="black"/>
<path d="M15.8357 6.72708C16.5047 6.72708 17.0469 6.1839 17.0469 5.51385C17.0469 4.84381 16.5047 4.30063 15.8357 4.30063C15.1668 4.30063 14.6245 4.84381 14.6245 5.51385C14.6245 6.1839 15.1668 6.72708 15.8357 6.72708Z" fill="black"/>
</svg>
