<?xml version="1.0" encoding="UTF-8"?>
<svg width="27px" height="22px" viewBox="0 0 27 22" version="1.1" xmlns="http://www.w3.org/2000/svg" xmlns:xlink="http://www.w3.org/1999/xlink">
    <!-- Generator: Sketch 52.2 (67145) - http://www.bohemiancoding.com/sketch -->
    <title>“</title>
    <desc>Created with Sketch.</desc>
    <g id="Desktop" stroke="none" stroke-width="1" fill="none" fill-rule="evenodd">
        <g id="Services-InteriorDesign" transform="translate(-708.000000, -2279.000000)" fill="#FFFFFF">
            <g id="Group-22" transform="translate(0.000000, 2179.000000)">
                <g id="Group-20" transform="translate(51.000000, 100.000000)">
                    <g id="Group-17" transform="translate(113.000000, 0.000000)">
                        <g id="Group-18">
                            <path d="M563.899213,5.18023256 C562.595269,6.81460766 561.943307,8.47027585 561.943307,10.1472868 C561.943307,10.8578847 562.028346,11.4689897 562.198425,11.9806202 C563.190556,11.2131745 564.267711,10.8294574 565.429921,10.8294574 C567.017331,10.8294574 568.342514,11.3339743 569.405512,12.3430233 C570.468509,13.3520722 571,14.7092938 571,16.4147287 C571,18.0064679 570.461423,19.335266 569.384252,20.4011628 C568.307081,21.4670596 566.988984,22 565.429921,22 C563.19054,22 561.475597,21.0762366 560.285039,19.2286822 C559.292908,17.6937908 558.79685,15.7752053 558.79685,13.4728682 C558.79685,10.545205 559.540937,7.9231382 561.029134,5.60658915 C562.51733,3.2900401 564.763765,1.42119574 567.768504,0 L568.576378,1.57751938 C566.762196,2.34496508 565.203156,3.54585746 563.899213,5.18023256 Z M549.102362,5.18023256 C547.798419,6.81460766 547.146457,8.47027585 547.146457,10.1472868 C547.146457,10.8578847 547.231495,11.4689897 547.401575,11.9806202 C548.365359,11.2131745 549.442514,10.8294574 550.633071,10.8294574 C552.192134,10.8294574 553.510231,11.3339743 554.587402,12.3430233 C555.664572,13.3520722 556.20315,14.7092938 556.20315,16.4147287 C556.20315,17.4664135 555.948034,18.4186004 555.437795,19.2713178 C554.927557,20.1240353 554.247248,20.7919872 553.39685,21.2751938 C552.546452,21.7584003 551.625202,22 550.633071,22 C548.39369,22 546.678746,21.0762366 545.488189,19.2286822 C544.496058,17.6937908 544,15.7752053 544,13.4728682 C544,10.545205 544.744087,7.9231382 546.232283,5.60658915 C547.72048,3.2900401 549.966914,1.42119574 552.971654,0 L553.779528,1.57751938 C551.965345,2.34496508 550.406306,3.54585746 549.102362,5.18023256 Z" id="“"></path>
                        </g>
                    </g>
                </g>
            </g>
        </g>
    </g>
</svg>